<svg xmlns="http://www.w3.org/2000/svg" width="1118" height="938" viewBox="0 0 1118 938">
<g>
<path d="M 972.00 866.00 C972.00,866.96 69.38,868.05 68.42,867.08 C68.19,866.85 68.00,857.74 68.00,846.84 L 68.00 827.01 L 184.50 826.75 C253.09,826.60 301.02,826.13 301.04,825.60 C301.06,825.10 275.52,818.27 244.29,810.42 C157.13,788.52 75.91,768.05 71.75,766.93 L 68.00 765.92 L 68.00 170.02 L 112.25 169.76 L 156.50 169.50 L 156.76 109.75 C156.90,76.89 157.29,50.00 157.63,50.00 C157.97,50.00 164.17,52.88 171.40,56.40 C178.63,59.92 196.69,68.43 211.52,75.31 C260.32,97.95 307.45,120.89 306.70,121.63 C306.45,121.88 303.60,120.89 300.37,119.42 C290.87,115.11 288.24,114.00 287.53,114.00 C287.17,114.00 282.73,112.01 277.68,109.58 C272.63,107.15 266.74,104.83 264.59,104.44 C262.44,104.04 259.52,103.11 258.09,102.37 C256.67,101.62 255.08,101.01 254.56,101.01 C254.05,101.00 252.69,100.12 251.55,99.05 C249.14,96.78 241.00,95.10 241.00,96.87 C241.00,97.49 240.52,98.00 239.94,98.00 C239.36,98.00 239.09,97.66 239.34,97.25 C240.05,96.08 231.83,95.89 230.44,97.05 C229.77,97.61 228.83,98.00 228.36,97.92 C226.15,97.52 225.00,98.15 225.00,99.76 C225.00,100.73 224.08,102.09 222.96,102.79 C221.84,103.49 221.20,104.52 221.55,105.08 C221.89,105.63 221.41,107.25 220.49,108.66 C218.88,111.11 218.90,111.37 220.81,113.96 C222.10,115.71 222.52,117.16 221.97,118.05 C220.93,119.72 226.51,122.42 228.94,121.43 C232.64,119.91 237.00,119.95 240.06,121.53 C242.55,122.82 242.97,123.41 241.90,124.09 C241.13,124.57 240.93,124.98 241.45,124.98 C241.97,124.99 241.88,125.52 241.25,126.15 C240.38,127.02 241.08,127.78 244.06,129.26 C246.24,130.34 248.95,132.52 250.08,134.11 C251.21,135.70 252.49,137.00 252.93,137.00 C253.37,137.00 256.82,138.70 260.61,140.79 C264.40,142.87 271.33,146.06 276.00,147.88 C280.68,149.70 285.40,151.55 286.50,151.99 C287.60,152.43 290.75,153.56 293.50,154.51 C296.25,155.46 300.30,157.26 302.50,158.51 C304.70,159.76 308.41,161.35 310.75,162.05 C313.09,162.75 315.00,163.72 315.00,164.22 C315.00,164.71 315.45,164.84 316.00,164.50 C316.55,164.16 317.00,164.33 317.00,164.87 C317.00,165.42 317.79,166.12 318.75,166.43 C319.71,166.74 321.70,168.00 323.18,169.24 C324.65,170.48 327.26,172.28 328.99,173.24 C330.72,174.20 331.87,175.40 331.55,175.91 C331.03,176.77 317.87,170.89 281.54,153.59 C273.86,149.93 267.34,146.62 267.04,146.22 C266.74,145.82 265.93,145.38 265.23,145.24 C263.67,144.93 241.41,134.60 218.11,123.38 C208.54,118.77 200.10,115.00 199.36,115.00 C198.22,115.00 198.00,158.39 198.00,384.98 L 198.00 654.95 L 200.34 656.49 C201.62,657.33 211.64,662.23 222.59,667.39 C233.54,672.54 252.18,681.36 264.00,687.00 C288.71,698.76 311.98,709.74 344.00,724.72 C356.38,730.51 375.73,739.64 387.00,745.01 C398.27,750.38 416.05,758.83 426.50,763.79 C436.95,768.75 452.64,776.22 461.36,780.40 C470.09,784.58 477.37,788.00 477.55,788.00 C478.08,788.00 527.19,811.80 531.36,814.08 C533.48,815.24 535.56,815.81 535.97,815.34 C536.39,814.88 538.20,806.85 539.99,797.50 C546.95,761.30 550.62,746.91 564.25,702.50 C574.42,669.36 593.37,621.47 610.44,585.77 C613.61,579.13 616.00,575.54 616.00,577.40 C616.00,578.53 611.68,589.57 610.80,590.68 C610.18,591.47 610.58,592.58 611.99,593.99 C614.79,596.79 614.21,599.18 610.50,600.17 C607.40,600.99 603.00,606.32 603.00,609.25 C603.00,610.15 602.51,611.18 601.92,611.55 C600.53,612.41 597.02,620.57 596.59,623.93 C595.99,628.66 593.83,635.48 592.43,637.06 C591.66,637.91 590.15,641.29 589.07,644.56 C585.64,654.88 584.37,658.03 583.17,659.23 C581.92,660.48 581.61,663.27 582.60,664.27 C582.93,664.60 584.34,664.44 585.72,663.91 C589.04,662.65 591.00,664.30 591.02,668.37 C591.02,670.09 591.43,672.13 591.92,672.91 C593.08,674.73 592.11,677.26 590.50,676.64 C589.81,676.37 588.18,676.71 586.87,677.39 C585.57,678.07 584.05,678.59 583.50,678.56 C582.95,678.53 582.36,679.75 582.18,681.27 C581.97,683.07 581.46,683.78 580.70,683.31 C577.85,681.56 575.79,682.39 574.26,685.91 C573.41,687.88 572.03,690.90 571.20,692.62 C569.42,696.29 570.08,698.68 573.22,699.94 C575.48,700.85 578.00,703.15 584.34,710.13 L 587.65 713.77 L 590.98 708.88 C592.81,706.20 594.63,704.00 595.03,704.00 C595.42,704.00 596.81,702.42 598.12,700.50 C599.43,698.57 601.31,696.74 602.29,696.42 C603.53,696.02 603.89,695.24 603.47,693.90 C602.98,692.38 603.58,691.65 606.26,690.54 C609.54,689.17 613.13,686.00 611.40,686.00 C610.94,686.00 611.64,685.24 612.96,684.31 C614.77,683.05 615.48,682.94 615.79,683.88 C616.54,686.13 620.54,686.92 624.81,685.66 C627.04,685.00 629.20,684.14 629.60,683.73 C630.00,683.33 630.90,683.00 631.59,683.00 C632.28,683.00 637.26,680.29 642.67,676.97 C659.08,666.90 669.52,658.71 681.50,646.52 C690.93,636.92 697.51,631.65 699.25,632.30 C699.99,632.58 699.48,633.20 698.00,633.82 C696.62,634.40 695.93,634.90 696.47,634.94 C697.85,635.03 688.13,644.76 676.50,654.93 C666.07,664.05 649.90,676.09 637.03,684.31 C628.63,689.67 600.15,704.00 597.88,704.00 C597.08,704.00 596.36,704.79 596.29,705.75 C596.21,706.71 594.04,714.92 591.47,724.00 C583.46,752.23 578.83,778.68 577.34,804.68 L 576.69 816.07 L 579.33 815.06 C580.78,814.51 594.92,807.80 610.74,800.16 C650.48,780.95 705.54,755.00 706.56,755.00 C707.02,755.00 706.84,755.56 706.15,756.25 C705.46,756.94 704.59,757.50 704.20,757.50 C703.02,757.51 693.70,763.71 690.00,766.95 C686.76,769.78 686.64,770.10 688.34,771.11 C689.36,771.71 690.83,773.73 691.61,775.60 C692.39,777.47 693.66,779.00 694.44,779.00 C695.22,779.00 696.00,780.00 696.18,781.21 C696.44,783.03 697.49,783.62 702.00,784.50 C707.85,785.64 711.00,785.44 711.00,783.93 C711.00,782.28 718.01,782.87 718.66,784.57 C719.16,785.87 720.37,786.02 725.88,785.44 C729.52,785.07 732.95,784.44 733.50,784.05 C735.11,782.91 744.09,779.75 744.51,780.17 C745.88,781.55 742.43,783.42 713.50,797.01 C709.10,799.07 698.76,804.00 690.52,807.95 C682.29,811.89 673.96,815.45 672.02,815.85 C669.46,816.38 668.41,817.17 668.19,818.75 C667.89,820.80 668.02,820.84 670.69,819.52 C672.23,818.76 685.20,815.19 699.50,811.58 C713.80,807.98 734.95,802.55 746.50,799.52 C758.05,796.49 768.62,794.05 770.00,794.09 C771.39,794.13 771.83,794.38 771.00,794.65 C770.17,794.92 768.60,795.53 767.50,795.99 C766.40,796.46 762.73,797.73 759.35,798.82 C753.07,800.84 749.66,803.33 748.60,806.68 C747.52,810.10 735.30,812.06 715.84,811.94 C713.27,811.92 710.91,812.33 710.60,812.84 C709.79,814.14 712.76,816.39 715.35,816.45 C718.67,816.53 718.86,818.42 715.59,818.99 C713.23,819.40 712.95,819.71 714.09,820.65 C714.87,821.28 717.19,822.49 719.25,823.34 C721.31,824.20 723.00,825.30 723.00,825.79 C723.00,826.27 724.78,828.55 726.97,830.84 C729.35,833.35 730.71,835.60 730.36,836.49 C730.00,837.45 730.90,838.60 732.89,839.74 C734.59,840.71 735.99,841.84 735.99,842.25 C736.00,842.66 736.67,843.00 737.50,843.00 C739.60,843.00 739.38,845.74 737.23,846.43 C736.25,846.74 733.89,846.54 731.98,845.99 C729.31,845.22 728.27,845.30 727.50,846.33 C726.95,847.07 725.87,847.47 725.11,847.21 C724.18,846.90 723.99,847.17 724.52,848.03 C725.13,849.02 724.75,849.12 722.91,848.49 C721.58,848.04 718.59,847.68 716.25,847.71 C712.56,847.74 712.00,847.46 712.00,845.61 C712.00,844.44 711.10,842.92 710.00,842.23 C708.81,841.49 708.00,841.39 708.00,841.99 C708.00,842.55 706.48,843.00 704.63,843.00 L 701.26 843.00 L 701.21 848.56 C701.16,855.01 702.33,856.01 707.70,854.06 C711.53,852.68 712.90,853.21 711.10,855.38 C710.19,856.48 710.19,856.90 711.14,857.21 C713.32,857.94 710.96,860.00 707.94,860.00 C706.32,860.00 705.00,860.36 705.00,860.80 C705.00,861.24 706.69,861.63 708.75,861.66 C710.81,861.70 719.70,861.97 728.50,862.26 C737.30,862.56 779.15,863.10 821.50,863.46 C863.85,863.83 902.78,864.29 908.00,864.50 C913.22,864.70 929.76,864.90 944.75,864.93 C962.17,864.98 972.00,865.36 972.00,866.00 ZM 410.00 810.51 C425.67,814.50 438.59,817.82 438.69,817.88 C438.80,817.95 439.16,817.54 439.51,816.99 C439.85,816.43 437.32,814.70 433.82,813.12 C426.68,809.90 398.94,796.78 367.00,781.52 C355.17,775.87 329.30,763.58 309.50,754.21 C289.70,744.85 267.20,734.17 259.50,730.48 C251.80,726.79 238.52,720.51 230.00,716.53 C205.21,704.94 159.61,682.84 158.24,681.75 C157.24,680.95 157.04,633.39 157.24,445.62 L 157.50 210.50 L 133.25 210.78 L 109.00 211.07 L 109.25 472.73 L 109.50 734.39 L 126.50 738.57 C135.85,740.87 157.90,746.45 175.50,750.96 C222.56,763.04 247.48,769.37 318.00,787.20 C352.92,796.02 394.33,806.51 410.00,810.51 ZM 162.08 119.16 C162.98,120.82 163.76,121.07 166.34,120.51 C168.08,120.13 171.67,119.68 174.32,119.51 C177.58,119.29 179.58,118.59 180.51,117.35 C181.67,115.78 182.19,115.69 183.93,116.75 C186.66,118.42 187.00,118.34 187.00,116.06 C187.00,114.99 187.46,113.84 188.02,113.49 C188.57,113.15 189.68,111.32 190.46,109.43 C191.25,107.54 192.60,106.00 193.46,106.00 C194.32,106.00 196.43,104.65 198.16,103.00 C199.88,101.35 202.08,100.00 203.04,100.00 C204.00,100.00 205.04,99.33 205.36,98.52 C205.68,97.66 206.59,97.29 207.48,97.63 C208.34,97.96 210.34,97.69 211.93,97.03 C216.52,95.13 222.64,99.03 219.18,101.66 C217.24,103.14 218.77,103.44 221.00,102.02 C222.23,101.23 222.28,100.70 221.27,99.08 C220.42,97.71 220.37,96.89 221.10,96.44 C222.09,95.83 221.84,93.34 220.40,89.59 C219.96,88.45 220.38,88.00 221.89,88.00 C223.05,88.00 224.00,87.57 224.00,87.05 C224.00,86.01 217.27,81.29 212.50,78.99 C210.85,78.20 207.93,76.61 206.00,75.46 C197.59,70.45 179.00,64.77 179.00,67.20 C179.00,67.64 177.99,68.03 176.75,68.08 C173.47,68.19 168.64,70.17 165.23,72.80 C160.75,76.27 159.54,83.54 160.34,102.13 C160.70,110.37 161.48,118.03 162.08,119.16 ZM 546.98 668.50 C544.16,675.65 541.49,681.87 541.05,682.33 C540.09,683.32 536.53,664.61 534.92,650.14 C533.15,634.22 534.26,592.92 536.94,575.50 C540.00,555.55 548.39,522.40 551.10,519.55 C552.41,518.16 552.23,519.93 550.48,525.59 C548.27,532.71 545.87,542.88 545.32,547.54 C544.31,555.90 548.19,562.26 550.80,556.54 C551.44,555.14 552.47,554.00 553.09,554.00 C554.58,554.00 553.35,564.71 551.54,567.50 C549.78,570.21 544.00,573.55 544.00,571.86 C544.00,569.15 541.98,572.74 541.09,577.04 C540.58,579.49 539.85,582.62 539.46,584.00 C538.45,587.53 538.77,606.90 539.89,610.50 C540.41,612.15 540.87,612.71 540.91,611.74 C540.96,610.77 541.56,609.08 542.24,607.99 C543.23,606.41 543.23,605.59 542.24,604.01 C540.64,601.45 540.68,601.00 542.50,601.00 C543.49,601.00 544.00,601.99 544.00,603.88 C544.00,605.46 544.28,608.16 544.62,609.88 C545.12,612.35 544.91,613.00 543.62,613.00 C542.67,613.00 542.00,613.82 542.00,615.00 C542.00,616.10 542.39,617.00 542.86,617.00 C543.33,617.00 545.29,618.48 547.22,620.30 C549.14,622.11 551.19,623.44 551.76,623.25 C552.34,623.05 553.47,623.83 554.27,624.97 C555.56,626.82 555.86,626.88 557.01,625.49 C557.99,624.30 558.03,623.36 557.17,621.48 C555.93,618.74 556.63,615.70 558.37,616.32 C558.99,616.54 559.42,617.91 559.31,619.36 C559.21,620.81 559.53,622.00 560.03,622.00 C561.32,622.00 563.00,618.54 563.03,615.82 C563.04,614.54 564.32,612.26 565.86,610.76 C568.80,607.87 569.72,606.31 572.77,599.00 C573.80,596.53 575.45,592.63 576.44,590.34 C578.40,585.78 577.99,583.93 575.18,584.66 C573.20,585.18 571.61,583.70 570.60,580.38 C570.03,578.52 570.47,578.16 574.22,577.46 C576.58,577.01 579.27,576.62 580.21,576.57 C582.24,576.49 588.50,570.79 591.26,566.53 C592.33,564.86 592.90,564.40 592.52,565.50 C592.14,566.60 591.67,568.17 591.48,569.00 C591.30,569.83 586.24,580.17 580.25,592.00 C570.32,611.61 560.85,633.39 546.98,668.50 ZM 159.50 210.45 C162.75,213.23 164.24,213.84 167.49,213.69 C169.68,213.58 172.18,212.80 173.05,211.94 C174.25,210.75 176.70,210.39 183.26,210.44 C191.06,210.49 191.96,210.31 192.50,208.50 C192.83,207.40 193.36,199.93 193.69,191.89 C194.32,176.27 193.02,165.09 190.30,162.84 C189.07,161.82 188.88,161.94 189.16,163.55 C189.36,164.71 188.99,165.40 188.25,165.25 C187.56,165.11 187.00,165.61 187.00,166.35 C187.00,167.82 180.42,175.00 179.06,175.00 C178.60,175.00 178.28,175.74 178.36,176.64 C178.54,178.74 176.28,179.61 175.83,177.62 C175.55,176.34 174.94,176.39 171.56,177.96 C169.40,178.97 167.03,179.56 166.30,179.29 C165.41,178.94 165.18,179.31 165.60,180.39 C166.01,181.46 165.67,182.00 164.61,182.00 C163.72,182.00 163.00,182.51 163.00,183.12 C163.00,183.92 162.58,183.90 161.56,183.05 C160.50,182.17 159.60,182.15 158.06,182.97 C155.86,184.15 155.29,186.60 157.09,187.20 C158.53,187.68 154.98,196.00 153.33,196.00 C151.78,196.00 145.80,204.87 146.54,206.07 C146.86,206.58 149.00,207.01 151.31,207.01 C154.62,207.03 156.34,207.75 159.50,210.45 ZM 753.75 777.51 C752.51,777.87 750.60,778.39 749.50,778.67 L 747.50 779.19 L 749.50 777.75 C750.60,776.97 752.85,775.65 754.50,774.82 C760.23,771.96 767.52,767.67 770.50,765.41 C774.17,762.64 782.46,759.00 785.12,759.00 C786.19,759.00 790.64,756.97 795.00,754.50 C799.36,752.03 803.40,750.00 803.98,750.00 C804.96,750.00 808.56,748.52 818.78,743.92 C821.13,742.87 823.72,742.00 824.53,742.00 C827.43,742.00 825.84,743.55 820.22,746.17 C811.80,750.11 792.59,759.30 775.31,767.65 C766.96,771.69 759.20,775.00 758.06,775.00 C756.93,775.00 756.00,775.42 756.00,775.93 C756.00,776.45 754.99,777.16 753.75,777.51 ZM 723.45 749.85 C722.93,750.32 719.20,751.90 715.16,753.36 C701.72,758.24 708.27,753.88 729.55,743.80 C741.07,738.33 756.12,731.14 763.00,727.82 C776.62,721.23 783.42,718.52 782.48,720.03 C782.15,720.56 779.55,722.14 776.69,723.55 C768.64,727.51 765.63,729.23 764.19,730.67 C763.46,731.40 762.33,732.00 761.68,732.00 C759.87,732.00 748.09,737.77 746.35,739.50 C745.51,740.35 744.70,741.82 744.56,742.77 C744.38,744.05 742.99,744.66 739.25,745.13 C736.47,745.48 732.73,746.49 730.94,747.38 C729.15,748.27 726.95,749.00 726.05,749.00 C725.14,749.00 723.97,749.38 723.45,749.85 ZM 172.25 143.29 C176.78,144.17 189.90,143.97 190.49,143.02 C190.82,142.49 191.35,139.80 191.68,137.05 C192.24,132.29 192.14,132.00 189.51,131.01 C187.95,130.41 186.27,130.33 185.63,130.81 C185.01,131.29 181.91,132.46 178.74,133.43 C173.01,135.18 170.00,137.84 170.00,141.15 C170.00,142.13 170.96,143.05 172.25,143.29 ZM 806.00 786.80 C795.17,789.57 792.00,790.07 792.00,789.01 C792.00,788.96 791.99,788.90 791.99,788.86 C791.98,788.80 791.97,788.75 791.98,788.69 C792.04,787.94 794.43,787.39 831.49,778.06 C849.08,773.62 864.44,770.00 865.61,770.00 C866.79,770.00 869.37,769.33 871.35,768.50 C873.32,767.67 875.96,767.03 877.22,767.06 C879.67,767.13 865.56,772.00 862.92,772.00 C862.05,772.00 861.03,772.30 860.67,772.66 C859.40,773.94 849.48,777.09 846.50,777.17 C843.86,777.24 837.18,778.83 806.00,786.80 ZM 361.45 147.06 C362.65,148.24 360.55,148.16 356.50,146.87 C354.85,146.34 352.40,145.68 351.06,145.40 C349.72,145.12 347.47,144.31 346.06,143.59 C344.65,142.87 340.91,141.10 337.75,139.65 C334.59,138.20 332.00,136.66 332.00,136.21 C332.00,135.77 328.29,133.65 323.75,131.51 C315.43,127.57 308.93,122.89 314.06,124.52 C320.26,126.49 359.55,145.17 361.45,147.06 ZM 900.50 802.51 C888.71,805.80 874.91,808.66 874.44,807.91 C873.81,806.88 874.25,806.67 883.50,803.70 C894.28,800.23 914.36,795.36 916.14,795.78 C916.49,795.86 918.18,795.52 919.89,795.03 C922.26,794.35 923.00,794.46 923.00,795.48 C923.00,796.34 922.26,796.62 920.90,796.26 C919.74,795.96 918.45,796.27 918.03,796.96 C917.60,797.64 914.84,798.80 911.88,799.52 C908.92,800.25 903.80,801.59 900.50,802.51 ZM 411.16 212.26 C412.05,212.59 412.16,213.08 411.50,213.73 C410.84,214.38 403.82,211.55 391.00,205.48 C380.27,200.41 370.99,195.77 370.36,195.19 C369.73,194.60 368.94,194.39 368.61,194.73 C368.27,195.06 368.00,194.80 368.00,194.15 C368.00,191.74 381.53,197.00 399.53,206.40 C405.19,209.35 410.42,211.99 411.16,212.26 ZM 687.03 799.25 C688.73,802.87 689.76,802.75 689.21,799.00 C688.72,795.61 689.54,795.29 692.84,797.60 C694.97,799.09 695.23,799.07 696.50,797.35 C697.71,795.70 697.62,795.47 695.68,795.22 C694.48,795.07 692.38,794.69 691.00,794.38 L 688.50 793.83 L 691.25 792.38 C694.73,790.55 694.78,788.23 691.35,787.37 C687.38,786.38 681.99,789.58 682.03,792.91 C682.07,796.05 684.55,799.80 685.27,797.80 C685.56,797.00 686.24,797.56 687.03,799.25 ZM 686.22 846.97 C686.85,847.99 688.70,848.49 691.74,848.46 C695.32,848.44 696.62,847.95 697.77,846.21 C698.86,844.58 698.92,844.00 698.01,844.00 C697.27,844.00 696.97,843.21 697.27,842.06 C697.58,840.91 697.02,839.42 695.91,838.42 C693.78,836.49 692.57,837.10 687.88,842.45 C685.97,844.64 685.52,845.86 686.22,846.97 ZM 620.42 519.87 C620.67,520.27 619.99,521.15 618.91,521.82 C617.33,522.81 617.56,521.95 620.15,517.27 C624.84,508.80 631.31,499.00 632.21,499.00 C632.65,499.00 633.00,498.55 633.00,497.99 C633.00,496.19 641.45,486.15 643.00,486.10 C644.19,486.07 644.15,486.26 642.80,487.05 C640.60,488.33 637.00,493.42 636.52,495.91 C636.02,498.48 624.18,516.12 621.81,517.82 C620.80,518.54 620.17,519.47 620.42,519.87 ZM 667.67 794.33 C669.11,795.77 672.00,794.96 672.00,793.12 C672.00,792.04 672.96,790.94 674.25,790.54 C676.32,789.90 676.23,789.76 673.08,788.85 C671.20,788.30 668.84,788.07 667.83,788.33 C666.82,788.60 666.00,788.44 666.00,787.97 C666.00,786.57 661.87,785.73 660.70,786.90 C660.09,787.51 658.68,788.01 657.55,788.02 C655.63,788.04 655.66,788.17 657.99,789.96 C660.44,791.84 660.50,791.84 662.32,789.88 C663.78,788.32 664.47,788.15 665.59,789.07 C666.36,789.72 667.00,791.01 667.00,791.96 C667.00,792.90 667.30,793.97 667.67,794.33 ZM 641.06 529.31 C638.40,534.56 636.24,536.84 638.21,532.31 C641.26,525.33 653.76,503.26 655.17,502.39 C656.62,501.50 655.19,505.84 653.00,509.00 C652.04,510.38 650.95,512.52 650.56,513.77 C650.17,515.02 648.42,517.94 646.67,520.27 C644.92,522.60 642.40,526.66 641.06,529.31 ZM 660.64 614.55 C651.34,616.27 651.28,616.27 650.53,615.05 C649.30,613.06 654.25,612.01 664.18,612.15 C669.86,612.23 673.15,612.48 671.50,612.70 C669.85,612.92 664.96,613.75 660.64,614.55 ZM 710.99 608.54 C704.01,610.03 700.30,610.36 701.27,609.40 C702.17,608.50 722.23,603.89 722.79,604.46 C723.06,604.73 722.21,605.82 720.89,606.88 C719.58,607.95 718.27,608.44 717.99,607.98 C717.71,607.52 714.55,607.77 710.99,608.54 ZM 834.50 828.06 C828.65,829.27 811.74,829.22 812.50,828.00 C812.87,827.41 818.30,827.05 825.81,827.11 C835.29,827.20 837.49,827.44 834.50,828.06 ZM 538.80 447.25 C537.09,450.69 536.00,448.90 536.05,442.75 L 536.11 436.50 L 537.89 441.00 C539.06,443.95 539.37,446.10 538.80,447.25 ZM 820.15 821.76 C819.36,823.04 809.00,824.05 809.00,822.85 C809.00,822.09 819.91,819.58 820.52,820.19 C820.73,820.39 820.56,821.10 820.15,821.76 ZM 559.86 500.57 C555.55,509.19 554.53,507.25 558.65,498.28 C560.41,494.45 561.45,493.09 561.72,494.25 C561.96,495.21 561.12,498.05 559.86,500.57 ZM 171.95 245.91 C172.57,247.06 173.73,248.00 174.54,248.00 C176.79,248.00 176.28,244.22 173.92,243.48 C171.19,242.61 170.59,243.36 171.95,245.91 ZM 601.00 688.89 C601.00,689.38 600.17,690.80 599.17,692.04 C597.48,694.12 597.28,694.16 596.65,692.53 C596.27,691.55 596.48,690.13 597.11,689.37 C598.38,687.84 601.00,687.51 601.00,688.89 ZM 660.72 606.08 C659.97,607.27 658.39,608.00 656.56,608.00 C652.95,608.00 654.17,606.39 658.77,605.06 C661.71,604.22 661.84,604.29 660.72,606.08 ZM 539.00 618.44 C539.00,620.95 539.45,623.00 540.00,623.00 C540.55,623.00 541.00,621.23 541.00,619.06 C541.00,616.89 540.55,614.84 540.00,614.50 C539.39,614.12 539.00,615.66 539.00,618.44 ZM 1002.00 775.88 C1002.00,777.14 998.81,777.81 996.56,777.02 C994.78,776.40 994.77,776.30 996.40,775.67 C998.89,774.72 1002.00,774.84 1002.00,775.88 ZM 593.00 650.50 C593.00,651.33 592.11,652.00 591.00,652.00 C589.89,652.00 589.00,651.33 589.00,650.50 C589.00,649.67 589.89,649.00 591.00,649.00 C592.11,649.00 593.00,649.67 593.00,650.50 ZM 160.00 178.28 C160.00,179.74 160.32,180.08 161.03,179.37 C162.46,177.94 161.15,174.98 159.14,175.08 C158.11,175.13 157.96,175.34 158.75,175.66 C159.44,175.94 160.00,177.12 160.00,178.28 ZM 589.00 658.44 C589.00,659.23 588.55,660.16 588.00,660.50 C587.45,660.84 587.00,660.19 587.00,659.06 C587.00,657.93 587.45,657.00 588.00,657.00 C588.55,657.00 589.00,657.65 589.00,658.44 ZM 667.54 831.07 C667.86,831.58 668.54,832.00 669.06,832.00 C670.13,832.00 670.31,830.64 669.36,829.69 C668.44,828.77 666.86,829.96 667.54,831.07 ZM 679.19 844.94 C678.94,845.69 679.31,846.06 680.06,845.81 C680.78,845.57 681.57,844.78 681.81,844.06 C682.06,843.31 681.69,842.94 680.94,843.19 C680.22,843.43 679.43,844.22 679.19,844.94 ZM 178.19 263.94 C177.94,264.69 178.31,265.06 179.06,264.81 C179.78,264.57 180.57,263.78 180.81,263.06 C181.06,262.31 180.69,261.94 179.94,262.19 C179.22,262.43 178.43,263.22 178.19,263.94 ZM 723.81 817.92 C724.01,818.52 723.42,819.00 722.50,819.00 C721.58,819.00 720.99,818.52 721.19,817.92 C721.39,817.33 721.98,816.85 722.50,816.85 C723.02,816.85 723.61,817.33 723.81,817.92 ZM 846.00 690.00 C846.00,690.55 845.30,691.00 844.44,691.00 C843.58,691.00 843.16,690.55 843.50,690.00 C843.84,689.45 844.54,689.00 845.06,689.00 C845.58,689.00 846.00,689.45 846.00,690.00 ZM 690.00 830.00 C690.00,830.55 690.70,831.00 691.56,831.00 C692.42,831.00 692.84,830.55 692.50,830.00 C692.16,829.45 691.46,829.00 690.94,829.00 C690.42,829.00 690.00,829.45 690.00,830.00 ZM 653.00 788.00 C653.00,788.55 653.45,789.00 654.00,789.00 C654.55,789.00 655.00,788.55 655.00,788.00 C655.00,787.45 654.55,787.00 654.00,787.00 C653.45,787.00 653.00,787.45 653.00,788.00 Z" fill="rgb(36,77,111)"/>
<path d="M 972.00 866.00 C972.00,865.36 962.17,864.98 944.75,864.93 C929.76,864.90 913.22,864.70 908.00,864.50 C902.78,864.29 863.85,863.83 821.50,863.46 C779.15,863.10 737.30,862.56 728.50,862.26 C719.70,861.97 710.81,861.70 708.75,861.66 C706.69,861.63 705.00,861.24 705.00,860.80 C705.00,860.36 706.32,860.00 707.94,860.00 C710.96,860.00 713.32,857.94 711.14,857.21 C710.19,856.90 710.19,856.48 711.10,855.38 C712.90,853.21 711.53,852.68 707.70,854.06 C702.33,856.01 701.16,855.01 701.21,848.56 L 701.26 843.00 L 704.63 843.00 C706.48,843.00 708.00,842.55 708.00,841.99 C708.00,841.39 708.81,841.49 710.00,842.23 C711.10,842.92 712.00,844.44 712.00,845.61 C712.00,847.46 712.56,847.74 716.25,847.71 C718.59,847.68 721.58,848.04 722.91,848.49 C724.75,849.12 725.13,849.02 724.52,848.03 C723.99,847.17 724.18,846.90 725.11,847.21 C725.87,847.47 726.95,847.07 727.50,846.33 C728.27,845.30 729.31,845.22 731.98,845.99 C733.89,846.54 736.25,846.74 737.23,846.43 C739.38,845.74 739.60,843.00 737.50,843.00 C736.67,843.00 736.00,842.66 735.99,842.25 C735.99,841.84 734.59,840.71 732.89,839.74 C730.90,838.60 730.00,837.45 730.36,836.49 C730.71,835.60 729.35,833.35 726.97,830.84 C724.78,828.55 723.00,826.27 723.00,825.79 C723.00,825.30 721.31,824.20 719.25,823.34 C717.19,822.49 714.87,821.28 714.09,820.65 C712.95,819.71 713.23,819.40 715.59,818.99 C718.86,818.42 718.67,816.53 715.35,816.45 C712.76,816.39 709.79,814.14 710.60,812.84 C710.91,812.33 713.27,811.92 715.84,811.94 C735.30,812.06 747.52,810.10 748.60,806.68 C749.66,803.33 753.07,800.84 759.35,798.82 C762.73,797.73 766.40,796.46 767.50,795.99 C768.60,795.53 770.17,794.92 771.00,794.65 C771.83,794.38 771.39,794.13 770.00,794.09 C768.91,794.06 762.05,795.59 753.50,797.73 C768.83,793.82 791.64,788.04 815.50,782.02 C854.55,772.17 901.80,760.22 920.50,755.47 C973.12,742.10 993.14,737.16 997.61,736.45 C999.87,736.08 1002.21,735.49 1002.80,735.13 C1003.55,734.66 1003.96,698.62 1004.18,614.98 C1004.36,549.27 1004.72,484.92 1005.00,472.00 L 1005.50 448.50 L 1006.27 485.50 C1007.78,558.87 1008.11,572.63 1008.51,580.50 C1008.74,584.90 1008.94,589.36 1008.96,590.40 C1009.00,592.19 1009.12,592.20 1010.83,590.65 C1011.83,589.74 1013.18,589.00 1013.83,589.00 C1015.59,589.00 1015.24,587.53 1012.98,585.49 C1010.97,583.66 1010.97,583.66 1013.47,582.02 C1014.99,581.02 1015.62,580.01 1015.07,579.44 C1013.19,577.48 1013.43,570.71 1015.45,568.69 C1016.25,567.89 1016.63,566.96 1016.29,566.62 C1015.95,566.28 1015.97,566.00 1016.33,566.00 C1016.70,566.00 1017.90,566.90 1019.00,568.00 C1021.08,570.08 1021.70,573.00 1020.06,573.00 C1019.55,573.00 1019.19,573.90 1019.27,575.00 C1019.36,576.10 1020.07,577.00 1020.87,577.00 C1022.01,577.00 1021.94,577.40 1020.54,578.96 C1018.94,580.72 1018.92,581.06 1020.31,582.46 C1021.16,583.31 1022.34,584.00 1022.93,584.00 C1024.29,584.00 1024.32,585.68 1022.98,586.51 C1022.42,586.86 1022.23,587.56 1022.54,588.07 C1022.86,588.58 1022.42,589.00 1021.56,589.00 C1020.52,589.00 1020.01,589.91 1020.03,591.75 C1020.07,594.67 1022.04,598.00 1023.74,598.00 C1024.30,598.00 1025.30,598.65 1025.95,599.45 C1026.87,600.54 1027.78,600.65 1029.75,599.90 C1031.78,599.13 1032.69,599.28 1033.92,600.58 C1035.12,601.84 1035.19,602.35 1034.24,602.71 C1033.54,602.96 1032.51,604.05 1031.94,605.12 C1031.05,606.78 1031.32,607.22 1033.82,608.09 C1035.43,608.65 1037.19,610.09 1037.74,611.30 C1038.48,612.95 1038.77,610.87 1038.89,603.00 C1038.98,597.22 1039.24,591.15 1039.49,589.50 C1040.54,582.27 1041.21,573.15 1040.99,569.00 C1040.85,566.53 1040.84,561.12 1040.95,557.00 C1041.06,552.88 1041.30,540.50 1041.48,529.50 C1041.66,518.50 1041.92,505.90 1042.05,501.50 L 1042.28 493.50 L 1042.96 500.14 C1043.34,503.79 1043.76,564.56 1043.90,635.20 C1044.11,740.99 1043.92,763.81 1042.83,764.64 C1039.78,766.97 1018.63,773.30 1017.54,772.21 C1017.20,771.87 1015.48,772.33 1013.71,773.23 C1012.98,773.61 1008.34,774.95 1001.14,776.89 C1001.67,776.64 1002.00,776.29 1002.00,775.88 C1002.00,774.84 998.89,774.72 996.40,775.67 C994.77,776.30 994.78,776.40 996.56,777.02 C997.50,777.35 998.62,777.43 999.59,777.31 C989.32,780.06 974.50,783.89 958.50,787.90 C929.90,795.06 903.80,801.65 900.50,802.55 C899.52,802.82 898.18,803.17 896.63,803.56 C897.93,803.22 899.23,802.87 900.50,802.51 C903.80,801.59 908.92,800.25 911.88,799.52 C914.84,798.80 917.60,797.64 918.03,796.96 C918.45,796.27 919.74,795.96 920.90,796.26 C922.26,796.62 923.00,796.34 923.00,795.48 C923.00,794.46 922.26,794.35 919.89,795.03 C918.18,795.52 916.49,795.86 916.14,795.78 C914.36,795.36 894.28,800.23 883.50,803.70 C874.25,806.67 873.81,806.88 874.44,807.91 C874.76,808.42 881.38,807.24 889.33,805.37 C887.51,805.82 885.68,806.25 884.00,806.65 C878.22,808.00 872.83,809.30 872.00,809.53 C871.17,809.75 858.58,812.88 844.00,816.47 C812.72,824.18 812.43,824.27 812.75,825.52 C812.91,826.15 854.76,826.68 928.75,827.00 L 1044.50 827.50 L 1044.50 866.50 L 869.79 866.60 C932.40,866.41 972.00,866.20 972.00,866.00 ZM 710.99 608.54 C714.55,607.77 717.71,607.52 717.99,607.98 C718.27,608.44 719.58,607.95 720.89,606.88 C722.21,605.82 723.06,604.73 722.79,604.46 C722.57,604.23 719.22,604.83 715.23,605.69 C715.48,605.63 715.72,605.57 715.95,605.51 C719.16,604.68 722.06,604.00 722.39,604.00 C725.47,604.00 715.42,616.66 699.08,633.35 C697.22,635.25 695.37,637.11 693.54,638.92 C695.85,636.48 697.01,634.97 696.47,634.94 C695.93,634.90 696.62,634.40 698.00,633.82 C699.48,633.20 699.99,632.58 699.25,632.30 C697.51,631.65 690.93,636.92 681.50,646.52 C669.52,658.71 659.08,666.90 642.67,676.97 C637.26,680.29 632.28,683.00 631.59,683.00 C630.90,683.00 630.00,683.33 629.60,683.73 C629.20,684.14 627.04,685.00 624.81,685.66 C620.54,686.92 616.54,686.13 615.79,683.88 C615.48,682.94 614.77,683.05 612.96,684.31 C611.64,685.24 610.94,686.00 611.40,686.00 C613.13,686.00 609.54,689.17 606.26,690.54 C603.58,691.65 602.98,692.38 603.47,693.90 C603.89,695.24 603.53,696.02 602.29,696.42 C601.31,696.74 599.43,698.57 598.12,700.50 C596.81,702.42 595.42,704.00 595.03,704.00 C594.63,704.00 592.81,706.20 590.98,708.88 L 587.65 713.77 L 584.34 710.13 C578.00,703.15 575.48,700.85 573.22,699.94 C570.08,698.68 569.42,696.29 571.20,692.62 C572.03,690.90 573.41,687.88 574.26,685.91 C575.79,682.39 577.85,681.56 580.70,683.31 C581.46,683.78 581.97,683.07 582.18,681.27 C582.36,679.75 582.95,678.53 583.50,678.56 C584.05,678.59 585.57,678.07 586.87,677.39 C588.18,676.71 589.81,676.37 590.50,676.64 C592.11,677.26 593.08,674.73 591.92,672.91 C591.43,672.13 591.02,670.09 591.02,668.37 C591.00,664.30 589.04,662.65 585.72,663.91 C584.34,664.44 582.93,664.60 582.60,664.27 C581.61,663.27 581.92,660.48 583.17,659.23 C584.37,658.03 585.64,654.88 589.07,644.56 C590.15,641.29 591.66,637.91 592.43,637.06 C593.83,635.48 595.99,628.66 596.59,623.93 C597.02,620.57 600.53,612.41 601.92,611.55 C602.51,611.18 603.00,610.15 603.00,609.25 C603.00,606.32 607.40,600.99 610.50,600.17 C614.21,599.18 614.79,596.79 611.99,593.99 C610.58,592.58 610.18,591.47 610.80,590.68 C611.68,589.57 616.00,578.53 616.00,577.40 C616.00,576.15 614.92,577.37 613.24,580.33 C618.48,569.40 623.09,560.28 625.91,555.50 C627.54,552.75 628.90,549.94 628.93,549.26 C629.00,547.98 635.10,536.62 647.31,515.00 C667.82,478.72 704.59,423.55 719.98,406.00 C721.18,404.62 724.72,399.95 727.83,395.61 C734.33,386.56 747.32,370.85 751.79,366.65 C754.25,364.34 755.17,364.00 756.66,364.87 C758.32,365.84 758.33,365.94 756.78,365.97 C754.61,366.01 755.55,369.00 757.74,369.00 C758.94,369.00 759.13,369.79 758.66,372.70 C757.99,376.84 759.94,380.00 763.15,380.00 C764.33,380.00 765.00,380.72 765.00,382.00 C765.00,383.10 764.58,384.00 764.07,384.00 C763.56,384.00 761.51,385.54 759.51,387.42 C752.21,394.31 747.62,395.61 741.64,392.49 C737.78,390.48 735.76,390.61 732.64,393.07 C728.97,395.96 721.22,406.23 719.36,410.67 C717.92,414.12 717.94,414.48 719.60,415.69 C720.58,416.41 722.14,417.00 723.07,417.00 C724.00,417.00 727.75,418.12 731.40,419.50 C738.33,422.11 743.00,422.71 743.00,421.00 C743.00,420.45 743.45,420.00 744.00,420.00 C744.55,420.00 745.00,421.02 745.00,422.28 C745.00,423.53 745.97,425.38 747.15,426.39 C749.09,428.06 749.38,428.08 750.20,426.62 C751.41,424.45 753.00,424.57 753.00,426.83 C753.00,429.41 756.97,432.78 760.48,433.17 C762.37,433.38 763.87,434.33 764.59,435.79 C766.86,440.37 770.03,442.85 773.12,442.46 C774.73,442.26 776.60,441.80 777.27,441.45 C777.95,441.10 776.25,442.84 773.50,445.33 C769.38,449.05 747.98,462.01 735.50,468.33 C733.10,469.54 732.83,469.97 734.14,470.49 C738.63,472.24 769.08,465.59 786.51,459.04 C797.25,455.01 799.44,454.56 796.52,456.98 C794.75,458.45 794.49,462.57 796.12,463.57 C797.95,464.71 802.70,458.90 802.18,456.16 C801.77,454.03 803.21,452.06 805.20,452.02 C806.82,451.98 792.33,488.47 784.82,503.35 C783.12,506.72 779.40,514.66 776.56,520.99 C770.62,534.20 761.40,549.52 755.57,555.85 C753.37,558.24 746.60,563.48 740.53,567.50 C728.68,575.36 703.78,589.03 700.50,589.49 C697.47,589.91 695.00,591.10 695.00,592.15 C695.00,593.51 661.36,608.00 658.20,608.00 C657.67,608.00 655.96,608.66 654.42,609.46 C651.96,610.73 651.84,611.00 653.42,611.61 C658.24,613.46 693.63,610.20 711.54,606.52 C706.55,607.68 701.70,608.97 701.27,609.40 C700.30,610.36 704.01,610.03 710.99,608.54 ZM 361.45 147.06 C360.76,146.37 355.06,143.43 347.82,139.89 C351.00,141.38 353.68,142.63 355.50,143.46 C367.04,148.70 386.18,157.61 395.50,162.06 C401.00,164.69 417.42,172.45 432.00,179.30 C488.75,205.98 534.95,227.93 544.73,232.85 C550.36,235.68 555.62,238.00 556.42,238.00 C557.80,238.00 583.55,225.99 639.00,199.48 C675.08,182.23 691.00,175.01 691.00,175.90 C691.00,176.33 688.64,177.96 685.75,179.51 C682.86,181.07 679.51,183.39 678.30,184.67 C677.09,185.95 675.10,187.00 673.88,187.00 C671.08,187.00 672.41,188.46 675.33,188.60 C678.99,188.77 683.00,190.86 683.00,192.60 C683.00,193.90 682.36,194.12 680.00,193.65 C678.19,193.29 677.00,193.47 677.00,194.10 C677.00,194.70 678.56,195.02 680.65,194.84 C684.35,194.52 685.01,195.05 686.54,199.50 C686.97,200.75 687.41,201.03 687.70,200.25 C688.34,198.53 691.49,198.68 693.00,200.50 C694.57,202.39 697.00,202.45 697.00,200.61 C697.00,198.57 700.21,197.63 701.19,199.38 C701.64,200.19 703.31,201.13 704.90,201.48 C706.55,201.84 708.01,202.93 708.29,204.00 C708.79,205.93 712.89,206.46 714.08,204.76 C714.40,204.30 715.90,203.70 717.42,203.43 C718.94,203.15 722.05,202.24 724.34,201.40 C726.63,200.56 729.40,199.60 730.50,199.28 C735.34,197.85 672.32,229.17 640.00,244.26 C636.42,245.93 620.79,253.50 605.25,261.08 L 577.00 274.86 L 576.92 289.18 C576.88,297.05 576.91,322.64 576.99,346.04 L 577.14 388.59 L 572.50 394.90 C565.81,403.98 547.24,432.53 542.23,441.42 C541.08,443.46 539.93,445.31 539.00,446.68 C539.26,445.45 538.89,443.51 537.89,441.00 L 536.39 437.21 C536.08,423.35 535.86,397.61 535.76,361.78 L 535.50 274.57 L 526.00 269.80 C520.78,267.18 494.70,254.62 468.06,241.90 C441.41,229.17 418.99,218.14 418.24,217.38 C417.48,216.62 416.06,216.00 415.08,216.00 C413.95,216.00 409.75,214.25 397.87,208.68 C406.33,212.52 410.97,214.25 411.50,213.73 C412.16,213.08 412.05,212.59 411.16,212.26 C410.42,211.99 405.19,209.35 399.53,206.40 C381.53,197.00 368.00,191.74 368.00,194.15 C368.00,194.27 368.01,194.37 368.03,194.47 C359.92,190.61 348.41,185.16 338.11,180.30 C330.03,176.49 319.88,171.69 310.47,167.23 C325.22,174.06 331.20,176.48 331.55,175.91 C331.87,175.40 330.72,174.20 328.99,173.24 C327.26,172.28 324.65,170.48 323.18,169.24 C321.70,168.00 319.71,166.74 318.75,166.43 C317.79,166.12 317.00,165.42 317.00,164.87 C317.00,164.33 316.55,164.16 316.00,164.50 C315.45,164.84 315.00,164.71 315.00,164.22 C315.00,163.72 313.09,162.75 310.75,162.05 C308.41,161.35 304.70,159.76 302.50,158.51 C300.30,157.26 296.25,155.46 293.50,154.51 C290.75,153.56 287.60,152.43 286.50,151.99 C285.40,151.55 280.68,149.70 276.00,147.88 C271.33,146.06 264.40,142.87 260.61,140.79 C256.82,138.70 253.37,137.00 252.93,137.00 C252.49,137.00 251.21,135.70 250.08,134.11 C248.95,132.52 246.24,130.34 244.06,129.26 C241.08,127.78 240.38,127.02 241.25,126.15 C241.88,125.52 241.97,124.99 241.45,124.98 C240.93,124.98 241.13,124.57 241.90,124.09 C242.97,123.41 242.55,122.82 240.06,121.53 C237.00,119.95 232.64,119.91 228.94,121.43 C226.51,122.42 220.93,119.72 221.97,118.05 C222.52,117.16 222.10,115.71 220.81,113.96 C218.90,111.37 218.88,111.11 220.49,108.66 C221.41,107.25 221.89,105.63 221.55,105.08 C221.20,104.52 221.84,103.49 222.96,102.79 C224.08,102.09 225.00,100.73 225.00,99.76 C225.00,98.15 226.15,97.52 228.36,97.92 C228.83,98.00 229.77,97.61 230.44,97.05 C231.83,95.89 240.05,96.08 239.34,97.25 C239.09,97.66 239.36,98.00 239.94,98.00 C240.52,98.00 241.00,97.49 241.00,96.87 C241.00,95.10 249.14,96.78 251.55,99.05 C252.69,100.12 254.05,101.00 254.56,101.01 C255.08,101.01 256.67,101.62 258.09,102.37 C259.52,103.11 262.44,104.04 264.59,104.44 C266.74,104.83 272.63,107.15 277.68,109.58 C282.73,112.01 287.17,114.00 287.53,114.00 C288.24,114.00 290.87,115.11 300.37,119.42 C303.60,120.89 306.45,121.88 306.70,121.63 C307.10,121.24 293.99,114.58 274.29,105.03 C287.73,111.46 296.32,115.50 299.00,116.65 C300.92,117.48 307.00,120.35 312.50,123.04 C316.41,124.96 322.00,127.64 327.92,130.47 C321.45,127.50 316.05,125.15 314.06,124.52 C308.93,122.89 315.43,127.57 323.75,131.51 C328.29,133.65 332.00,135.77 332.00,136.21 C332.00,136.66 334.59,138.20 337.75,139.65 C340.91,141.10 344.65,142.87 346.06,143.59 C347.47,144.31 349.72,145.12 351.06,145.40 C352.40,145.68 354.85,146.34 356.50,146.87 C360.55,148.16 362.65,148.24 361.45,147.06 ZM 584.39 583.78 C588.41,575.72 591.34,569.63 591.48,569.00 C591.67,568.17 592.14,566.60 592.52,565.50 C592.90,564.40 592.33,564.86 591.26,566.53 C588.50,570.79 582.24,576.49 580.21,576.57 C579.27,576.62 576.58,577.01 574.22,577.46 C570.47,578.16 570.03,578.52 570.60,580.38 C571.61,583.70 573.20,585.18 575.18,584.66 C577.99,583.93 578.40,585.78 576.44,590.34 C575.45,592.63 573.80,596.53 572.77,599.00 C569.72,606.31 568.80,607.87 565.86,610.76 C564.32,612.26 563.04,614.54 563.03,615.82 C563.00,618.54 561.32,622.00 560.03,622.00 C559.53,622.00 559.21,620.81 559.31,619.36 C559.42,617.91 558.99,616.54 558.37,616.32 C556.63,615.70 555.93,618.74 557.17,621.48 C558.03,623.36 557.99,624.30 557.01,625.49 C555.86,626.88 555.56,626.82 554.27,624.97 C553.47,623.83 552.34,623.05 551.76,623.25 C551.19,623.44 549.14,622.11 547.22,620.30 C545.29,618.48 543.33,617.00 542.86,617.00 C542.39,617.00 542.00,616.10 542.00,615.00 C542.00,613.82 542.67,613.00 543.62,613.00 C544.91,613.00 545.12,612.35 544.62,609.88 C544.28,608.16 544.00,605.46 544.00,603.88 C544.00,601.99 543.49,601.00 542.50,601.00 C540.68,601.00 540.64,601.45 542.24,604.01 C543.23,605.59 543.23,606.41 542.24,607.99 C541.56,609.08 540.96,610.77 540.91,611.74 C540.87,612.71 540.41,612.15 539.89,610.50 C538.77,606.90 538.45,587.53 539.46,584.00 C539.85,582.62 540.58,579.49 541.09,577.04 C541.98,572.74 544.00,569.15 544.00,571.86 C544.00,573.55 549.78,570.21 551.54,567.50 C553.35,564.71 554.58,554.00 553.09,554.00 C552.47,554.00 551.44,555.14 550.80,556.54 C548.19,562.26 544.31,555.90 545.32,547.54 C545.87,542.88 548.27,532.71 550.48,525.59 C552.23,519.93 552.41,518.16 551.10,519.55 C550.69,519.98 550.16,521.09 549.53,522.73 C553.34,510.87 557.64,499.65 562.17,490.00 C577.11,458.14 593.97,431.31 616.52,403.50 C625.07,392.96 653.01,363.68 653.78,364.45 C654.07,364.74 654.25,368.24 654.18,372.24 C653.98,383.76 656.39,415.01 657.50,415.27 C658.05,415.40 658.89,413.70 659.36,411.50 C663.47,392.51 672.21,366.71 680.20,350.00 C684.66,340.67 686.25,338.49 694.40,330.40 C702.43,322.43 708.00,317.93 708.00,319.39 C708.00,319.65 705.29,322.52 701.98,325.78 C697.70,329.99 696.14,332.20 696.60,333.39 C696.99,334.41 697.90,334.85 698.95,334.52 C701.10,333.83 704.20,337.06 703.10,338.83 C702.05,340.53 707.31,346.20 709.25,345.46 C710.03,345.16 711.25,345.60 711.95,346.44 C712.65,347.29 713.65,347.71 714.18,347.39 C715.50,346.58 718.58,349.57 720.03,353.07 C720.70,354.68 721.78,356.00 722.43,356.00 C723.09,356.00 724.69,357.00 726.00,358.22 C727.67,359.77 729.75,360.47 732.94,360.57 C737.72,360.71 741.06,361.70 742.14,363.31 C742.51,363.86 743.34,363.89 744.14,363.38 C745.62,362.43 750.00,362.09 750.00,362.92 C750.00,363.21 740.87,372.68 729.71,383.97 C709.30,404.63 690.83,425.15 674.32,445.50 C662.04,460.63 650.34,476.24 647.70,481.00 C646.49,483.19 642.02,489.87 637.76,495.84 C628.64,508.66 610.89,536.82 600.27,555.35 C593.95,566.36 588.86,575.41 584.39,583.78 ZM 753.75 777.51 C754.99,777.16 756.00,776.45 756.00,775.93 C756.00,775.42 756.93,775.00 758.06,775.00 C758.77,775.00 762.07,773.71 766.49,771.75 C761.79,774.00 757.90,775.84 756.50,776.48 C754.41,777.45 744.78,782.05 734.68,786.92 C744.19,782.23 745.42,781.09 744.51,780.17 C744.09,779.75 735.11,782.91 733.50,784.05 C732.95,784.44 729.52,785.07 725.88,785.44 C720.37,786.02 719.16,785.87 718.66,784.57 C718.01,782.87 711.00,782.28 711.00,783.93 C711.00,785.44 707.85,785.64 702.00,784.50 C697.49,783.62 696.44,783.03 696.18,781.21 C696.00,780.00 695.22,779.00 694.44,779.00 C693.66,779.00 692.39,777.47 691.61,775.60 C690.83,773.73 689.36,771.71 688.34,771.11 C686.64,770.10 686.76,769.78 690.00,766.95 C693.70,763.71 703.02,757.51 704.20,757.50 C704.59,757.50 705.46,756.94 706.15,756.25 C706.84,755.56 707.02,755.00 706.56,755.00 C706.07,755.00 693.34,760.88 675.84,769.12 C712.46,751.84 734.15,741.59 750.86,733.65 C744.09,736.88 736.22,740.63 729.55,743.80 C708.27,753.88 701.72,758.24 715.16,753.36 C719.20,751.90 722.93,750.32 723.45,749.85 C723.97,749.38 725.14,749.00 726.05,749.00 C726.95,749.00 729.15,748.27 730.94,747.38 C732.73,746.49 736.47,745.48 739.25,745.13 C742.99,744.66 744.38,744.05 744.56,742.77 C744.70,741.82 745.51,740.35 746.35,739.50 C748.09,737.77 759.87,732.00 761.68,732.00 C762.33,732.00 763.46,731.40 764.19,730.67 C765.63,729.23 768.64,727.51 776.69,723.55 C779.55,722.14 782.15,720.56 782.48,720.03 C783.21,718.86 779.28,720.23 771.12,723.98 C774.40,722.41 777.65,720.85 781.00,719.24 C804.98,707.71 832.42,694.82 835.50,693.65 C837.15,693.02 838.72,692.22 839.00,691.88 C839.28,691.54 845.35,688.55 852.50,685.23 C866.51,678.72 880.77,672.00 899.00,663.30 C905.33,660.28 911.51,657.41 912.75,656.93 L 915.00 656.05 L 915.17 550.27 C915.43,388.21 915.82,310.08 916.36,310.08 C916.36,310.08 916.36,310.08 916.37,310.08 C916.57,310.31 917.05,329.17 917.44,352.00 C917.83,374.83 918.33,400.02 918.55,408.00 C918.78,415.98 919.21,433.52 919.52,447.00 C919.83,460.48 920.21,472.62 920.38,474.00 C920.55,475.38 920.80,477.62 920.94,479.00 L 921.20 481.50 L 922.00 479.00 C922.44,477.62 922.85,474.41 922.90,471.86 C922.99,467.45 924.02,466.00 927.05,466.00 C928.83,466.00 930.21,470.04 928.95,471.56 C928.06,472.63 928.05,473.00 928.91,473.00 C929.54,473.00 930.34,473.72 930.68,474.61 C931.02,475.49 932.29,477.29 933.50,478.59 C935.58,480.84 936.10,483.13 936.25,490.85 C936.30,493.47 935.62,494.74 933.16,496.67 C930.87,498.46 930.00,499.97 930.00,502.13 C930.00,503.99 930.40,504.87 931.06,504.46 C931.65,504.10 933.00,504.60 934.07,505.56 C935.85,507.17 935.89,507.53 934.51,509.63 C932.58,512.57 932.58,515.00 934.51,515.00 C935.67,515.00 935.96,516.04 935.76,519.50 C935.62,521.97 935.16,523.99 934.75,524.00 C934.34,524.00 934.00,524.67 934.00,525.50 C934.00,526.55 935.06,527.00 937.50,527.00 C939.42,527.00 941.11,526.92 941.25,526.83 C941.39,526.74 942.51,527.20 943.75,527.87 C945.81,528.97 946.00,528.85 946.00,526.54 C946.00,525.14 945.44,523.99 944.75,523.98 C943.92,523.97 944.00,523.65 945.00,523.00 C947.52,521.37 948.00,521.84 948.00,526.00 C948.00,528.20 948.39,530.00 948.87,530.00 C950.37,530.00 950.91,522.37 951.53,492.00 C951.87,475.77 952.30,460.70 952.50,458.50 C952.70,456.30 952.93,438.52 953.03,419.00 C953.14,395.35 953.50,384.78 954.10,387.34 C954.63,389.56 954.90,452.43 954.75,536.23 C954.53,663.95 954.32,681.38 953.00,682.13 C945.09,686.58 900.33,708.23 898.50,708.49 C895.29,708.93 893.20,710.05 892.58,711.64 C892.27,712.46 891.59,712.86 891.07,712.54 C889.93,711.84 882.00,715.12 882.00,716.30 C882.00,716.75 878.96,718.49 875.25,720.15 C868.22,723.31 837.58,737.85 816.00,748.27 C809.12,751.60 800.35,755.75 796.50,757.51 C795.64,757.90 794.48,758.44 793.11,759.08 C804.41,753.65 814.67,748.77 820.22,746.17 C825.84,743.55 827.43,742.00 824.53,742.00 C823.72,742.00 821.13,742.87 818.78,743.92 C808.56,748.52 804.96,750.00 803.98,750.00 C803.40,750.00 799.36,752.03 795.00,754.50 C790.64,756.97 786.19,759.00 785.12,759.00 C782.46,759.00 774.17,762.64 770.50,765.41 C767.52,767.67 760.23,771.96 754.50,774.82 C752.85,775.65 750.60,776.97 749.50,777.75 L 747.50 779.19 L 749.50 778.67 C750.60,778.39 752.51,777.87 753.75,777.51 ZM 162.08 119.16 C161.48,118.03 160.70,110.37 160.34,102.13 C159.54,83.54 160.75,76.27 165.23,72.80 C168.64,70.17 173.47,68.19 176.75,68.08 C177.99,68.03 179.00,67.64 179.00,67.20 C179.00,64.77 197.59,70.45 206.00,75.46 C207.93,76.61 210.85,78.20 212.50,78.99 C217.27,81.29 224.00,86.01 224.00,87.05 C224.00,87.57 223.05,88.00 221.89,88.00 C220.38,88.00 219.96,88.45 220.40,89.59 C221.84,93.34 222.09,95.83 221.10,96.44 C220.37,96.89 220.42,97.71 221.27,99.08 C222.28,100.70 222.23,101.23 221.00,102.02 C218.77,103.44 217.24,103.14 219.18,101.66 C222.64,99.03 216.52,95.13 211.93,97.03 C210.34,97.69 208.34,97.96 207.48,97.63 C206.59,97.29 205.68,97.66 205.36,98.52 C205.04,99.33 204.00,100.00 203.04,100.00 C202.08,100.00 199.88,101.35 198.16,103.00 C196.43,104.65 194.32,106.00 193.46,106.00 C192.60,106.00 191.25,107.54 190.46,109.43 C189.68,111.32 188.57,113.15 188.02,113.49 C187.46,113.84 187.00,114.99 187.00,116.06 C187.00,118.34 186.66,118.42 183.93,116.75 C182.19,115.69 181.67,115.78 180.51,117.35 C179.58,118.59 177.58,119.29 174.32,119.51 C171.67,119.68 168.08,120.13 166.34,120.51 C163.76,121.07 162.98,120.82 162.08,119.16 ZM 159.50 210.45 C156.34,207.75 154.62,207.03 151.31,207.01 C149.00,207.01 146.86,206.58 146.54,206.07 C145.80,204.87 151.78,196.00 153.33,196.00 C154.98,196.00 158.53,187.68 157.09,187.20 C155.29,186.60 155.86,184.15 158.06,182.97 C159.60,182.15 160.50,182.17 161.56,183.05 C162.58,183.90 163.00,183.92 163.00,183.12 C163.00,182.51 163.72,182.00 164.61,182.00 C165.67,182.00 166.01,181.46 165.60,180.39 C165.18,179.31 165.41,178.94 166.30,179.29 C167.03,179.56 169.40,178.97 171.56,177.96 C174.94,176.39 175.55,176.34 175.83,177.62 C176.28,179.61 178.54,178.74 178.36,176.64 C178.28,175.74 178.60,175.00 179.06,175.00 C180.42,175.00 187.00,167.82 187.00,166.35 C187.00,165.61 187.56,165.11 188.25,165.25 C188.99,165.40 189.36,164.71 189.16,163.55 C188.88,161.94 189.07,161.82 190.30,162.84 C193.02,165.09 194.32,176.27 193.69,191.89 C193.36,199.93 192.83,207.40 192.50,208.50 C191.96,210.31 191.06,210.49 183.26,210.44 C176.70,210.39 174.25,210.75 173.05,211.94 C172.18,212.80 169.68,213.58 167.49,213.69 C164.24,213.84 162.75,213.23 159.50,210.45 ZM 700.37 403.54 C702.37,407.85 705.00,406.54 714.67,396.38 C723.55,387.06 725.10,384.00 720.95,384.00 C719.94,384.00 718.82,383.51 718.45,382.91 C718.08,382.31 716.85,382.07 715.73,382.36 C713.41,382.97 709.67,381.34 710.46,380.06 C711.50,378.38 708.32,377.24 701.18,376.76 L 693.87 376.26 L 694.55 380.29 C694.92,382.51 696.29,385.38 697.58,386.68 C699.56,388.65 699.78,389.46 698.94,391.65 C697.88,394.43 698.55,397.97 700.38,399.33 C701.20,399.93 701.20,400.28 700.37,400.62 C699.52,400.97 699.52,401.71 700.37,403.54 ZM 172.25 143.29 C170.96,143.05 170.00,142.13 170.00,141.15 C170.00,137.84 173.01,135.18 178.74,133.43 C181.91,132.46 185.01,131.29 185.63,130.81 C186.27,130.33 187.95,130.41 189.51,131.01 C192.14,132.00 192.24,132.29 191.68,137.05 C191.35,139.80 190.82,142.49 190.49,143.02 C189.90,143.97 176.78,144.17 172.25,143.29 ZM 670.00 386.07 C670.00,388.89 671.86,388.43 673.25,385.25 C674.85,381.61 675.40,381.31 681.61,380.53 C685.61,380.03 687.06,379.40 687.52,377.94 C687.85,376.88 687.87,375.59 687.55,375.08 C687.23,374.56 687.42,373.86 687.98,373.51 C688.54,373.16 688.99,372.12 688.98,371.19 C688.97,369.73 688.84,369.71 688.00,371.00 C687.20,372.24 687.03,372.16 687.00,370.50 C686.97,368.84 686.80,368.76 686.00,370.00 C685.18,371.27 685.03,371.23 685.02,369.70 C685.00,368.19 684.32,367.96 680.80,368.29 C678.49,368.50 676.28,369.32 675.89,370.09 C673.64,374.55 670.00,384.41 670.00,386.07 ZM 806.00 786.80 C837.18,778.83 843.86,777.24 846.50,777.17 C849.48,777.09 859.40,773.94 860.67,772.66 C861.03,772.30 862.05,772.00 862.92,772.00 C865.56,772.00 879.67,767.13 877.22,767.06 C875.96,767.03 873.32,767.67 871.35,768.50 C869.37,769.33 866.79,770.00 865.61,770.00 C864.44,770.00 849.08,773.62 831.49,778.06 C794.43,787.39 792.04,787.94 791.98,788.69 C791.97,788.75 791.98,788.80 791.99,788.86 C791.99,788.90 792.00,788.96 792.00,789.01 C792.00,790.07 795.17,789.57 806.00,786.80 ZM 808.70 420.12 C805.51,422.81 802.46,425.00 801.92,425.00 C800.22,425.00 803.84,419.26 808.75,414.19 C814.79,407.96 821.98,399.94 824.29,396.88 L 826.08 394.50 L 825.45 397.00 C824.42,401.08 819.99,409.29 817.14,412.37 C815.69,413.95 811.89,417.44 808.70,420.12 ZM 157.59 668.63 C157.14,644.25 157.00,581.63 157.00,445.88 L 157.00 211.00 L 114.81 211.00 L 133.25 210.78 L 157.50 210.50 L 157.24 445.62 C157.10,581.92 157.16,644.34 157.59,668.63 ZM 1035.72 631.02 C1036.13,632.61 1036.54,632.80 1037.62,631.90 C1039.92,629.99 1039.26,614.00 1036.88,614.00 C1036.40,614.00 1036.00,614.67 1036.00,615.50 C1036.00,616.33 1035.52,617.00 1034.94,617.00 C1034.36,617.00 1034.13,616.60 1034.43,616.11 C1034.74,615.62 1033.85,614.93 1032.45,614.58 C1031.06,614.23 1030.19,613.50 1030.52,612.97 C1031.46,611.44 1028.38,611.84 1027.07,613.42 C1026.14,614.54 1026.27,615.06 1027.69,615.89 C1029.39,616.88 1029.38,616.95 1027.50,617.05 C1026.40,617.11 1026.07,617.39 1026.76,617.66 C1027.45,617.94 1027.76,618.58 1027.45,619.09 C1027.14,619.59 1027.47,620.02 1028.19,620.04 C1030.21,620.10 1037.73,627.34 1037.25,628.76 C1037.02,629.45 1036.46,629.78 1036.01,629.50 C1035.56,629.23 1035.42,629.91 1035.72,631.02 ZM 687.03 799.25 C686.24,797.56 685.56,797.00 685.27,797.80 C684.55,799.80 682.07,796.05 682.03,792.91 C681.99,789.58 687.38,786.38 691.35,787.37 C694.78,788.23 694.73,790.55 691.25,792.38 L 688.50 793.83 L 691.00 794.38 C692.38,794.69 694.48,795.07 695.68,795.22 C697.62,795.47 697.71,795.70 696.50,797.35 C695.23,799.07 694.97,799.09 692.84,797.60 C689.54,795.29 688.72,795.61 689.21,799.00 C689.76,802.75 688.73,802.87 687.03,799.25 ZM 686.22 846.97 C685.52,845.86 685.97,844.64 687.88,842.45 C692.57,837.10 693.78,836.49 695.91,838.42 C697.02,839.42 697.58,840.91 697.27,842.06 C696.97,843.21 697.27,844.00 698.01,844.00 C698.92,844.00 698.86,844.58 697.77,846.21 C696.62,847.95 695.32,848.44 691.74,848.46 C688.70,848.49 686.85,847.99 686.22,846.97 ZM 743.12 299.09 C717.47,313.01 714.94,313.92 731.25,303.36 C736.89,299.72 742.62,295.97 744.00,295.04 C745.38,294.11 749.29,291.94 752.70,290.21 C764.48,284.26 756.03,292.09 743.12,299.09 ZM 620.42 519.87 C620.17,519.47 620.80,518.54 621.81,517.82 C624.18,516.12 636.02,498.48 636.52,495.91 C637.00,493.42 640.60,488.33 642.80,487.05 C644.15,486.26 644.19,486.07 643.00,486.10 C641.45,486.15 633.00,496.19 633.00,497.99 C633.00,498.55 632.65,499.00 632.21,499.00 C631.31,499.00 624.84,508.80 620.15,517.27 C617.56,521.95 617.33,522.81 618.91,521.82 C619.99,521.15 620.67,520.27 620.42,519.87 ZM 599.00 222.57 C599.00,224.38 599.74,224.36 605.12,222.42 C607.53,221.56 610.24,220.69 611.15,220.50 C613.45,220.02 618.76,217.20 619.43,216.11 C620.36,214.61 617.16,213.99 614.24,215.10 C612.73,215.67 611.39,216.11 611.25,216.07 C610.08,215.74 608.88,216.26 607.39,217.75 C606.42,218.71 605.15,219.53 604.57,219.56 C601.88,219.71 599.00,221.27 599.00,222.57 ZM 667.67 794.33 C667.30,793.97 667.00,792.90 667.00,791.96 C667.00,791.01 666.36,789.72 665.59,789.07 C664.47,788.15 663.78,788.32 662.32,789.88 C660.50,791.84 660.44,791.84 657.99,789.96 C655.66,788.17 655.63,788.04 657.55,788.02 C658.68,788.01 660.09,787.51 660.70,786.90 C661.87,785.73 666.00,786.57 666.00,787.97 C666.00,788.44 666.82,788.60 667.83,788.33 C668.84,788.07 671.20,788.30 673.08,788.85 C676.23,789.76 676.32,789.90 674.25,790.54 C672.96,790.94 672.00,792.04 672.00,793.12 C672.00,794.96 669.11,795.77 667.67,794.33 ZM 641.06 529.31 C642.40,526.66 644.92,522.60 646.67,520.27 C648.42,517.94 650.17,515.02 650.56,513.77 C650.95,512.52 652.04,510.38 653.00,509.00 C655.19,505.84 656.62,501.50 655.17,502.39 C653.76,503.26 641.26,525.33 638.21,532.31 C636.24,536.84 638.40,534.56 641.06,529.31 ZM 660.64 614.55 C664.96,613.75 669.85,612.92 671.50,612.70 C673.15,612.48 669.86,612.23 664.18,612.15 C654.25,612.01 649.30,613.06 650.53,615.05 C651.28,616.27 651.34,616.27 660.64,614.55 ZM 834.50 828.06 C837.49,827.44 835.29,827.20 825.81,827.11 C818.30,827.05 812.87,827.41 812.50,828.00 C811.74,829.22 828.65,829.27 834.50,828.06 ZM 696.30 812.39 C683.31,815.71 672.12,818.82 670.69,819.52 C668.02,820.84 667.89,820.80 668.19,818.75 C668.41,817.17 669.46,816.38 672.02,815.85 C673.96,815.45 682.29,811.89 690.52,807.95 C692.34,807.08 694.25,806.16 696.18,805.24 L 694.89 805.86 C684.78,810.73 675.44,815.05 674.15,815.46 C672.65,815.93 672.15,816.55 672.76,817.16 C673.23,817.63 682.59,815.69 696.30,812.39 ZM 920.75 500.42 C921.97,501.64 923.27,494.25 922.53,490.29 C922.02,487.59 921.61,487.01 920.94,488.07 C919.84,489.80 919.70,499.36 920.75,500.42 ZM 929.00 462.50 C927.20,464.67 925.33,464.34 924.63,461.75 C923.72,458.36 923.84,458.00 925.88,458.00 C928.74,458.00 930.56,460.62 929.00,462.50 ZM 1021.67 607.33 C1024.03,609.70 1027.88,606.74 1026.64,603.51 C1026.17,602.29 1025.60,602.22 1023.53,603.17 C1021.07,604.29 1020.31,605.98 1021.67,607.33 ZM 838.74 344.25 C837.25,350.58 836.25,350.29 837.00,343.75 C837.55,338.96 839.36,334.00 840.55,334.00 C841.05,334.00 840.73,335.79 838.74,344.25 ZM 820.15 821.76 C820.56,821.10 820.73,820.39 820.52,820.19 C819.91,819.58 809.00,822.09 809.00,822.85 C809.00,824.05 819.36,823.04 820.15,821.76 ZM 559.86 500.57 C561.12,498.05 561.96,495.21 561.72,494.25 C561.45,493.09 560.41,494.45 558.65,498.28 C554.53,507.25 555.55,509.19 559.86,500.57 ZM 641.00 237.12 C641.00,238.41 643.24,238.14 645.25,236.61 C647.39,234.98 647.47,233.63 645.50,232.00 C644.28,230.99 644.00,231.04 644.00,232.26 C644.00,233.08 643.33,234.32 642.50,235.00 C641.67,235.68 641.00,236.64 641.00,237.12 ZM 927.02 453.96 C925.66,456.50 925.37,456.50 924.71,454.00 C924.09,451.62 924.90,448.00 926.05,448.00 C927.51,448.00 928.14,451.87 927.02,453.96 ZM 647.20 379.12 C648.02,379.63 648.91,379.12 649.70,377.71 C651.38,374.68 651.29,373.33 649.41,373.33 C647.26,373.33 645.46,378.05 647.20,379.12 ZM 171.95 245.91 C170.59,243.36 171.19,242.61 173.92,243.48 C176.28,244.22 176.79,248.00 174.54,248.00 C173.73,248.00 172.57,247.06 171.95,245.91 ZM 601.00 688.89 C601.00,687.51 598.38,687.84 597.11,689.37 C596.48,690.13 596.27,691.55 596.65,692.53 C597.28,694.16 597.48,694.12 599.17,692.04 C600.17,690.80 601.00,689.38 601.00,688.89 ZM 660.72 606.08 C661.84,604.29 661.71,604.22 658.77,605.06 C654.17,606.39 652.95,608.00 656.56,608.00 C658.39,608.00 659.97,607.27 660.72,606.08 ZM 539.00 618.44 C539.00,615.66 539.39,614.12 540.00,614.50 C540.55,614.84 541.00,616.89 541.00,619.06 C541.00,621.23 540.55,623.00 540.00,623.00 C539.45,623.00 539.00,620.95 539.00,618.44 ZM 619.05 221.09 C619.99,222.86 622.02,222.93 621.98,221.19 C621.95,219.55 620.13,217.80 619.11,218.43 C618.32,218.92 618.30,219.69 619.05,221.09 ZM 593.00 650.50 C593.00,649.67 592.11,649.00 591.00,649.00 C589.89,649.00 589.00,649.67 589.00,650.50 C589.00,651.33 589.89,652.00 591.00,652.00 C592.11,652.00 593.00,651.33 593.00,650.50 ZM 160.00 178.28 C160.00,177.12 159.44,175.94 158.75,175.66 C157.96,175.34 158.11,175.13 159.14,175.08 C161.15,174.98 162.46,177.94 161.03,179.37 C160.32,180.08 160.00,179.74 160.00,178.28 ZM 681.00 376.11 C681.00,377.13 678.65,377.31 677.69,376.36 C677.34,376.01 677.28,375.35 677.56,374.90 C678.18,373.90 681.00,374.88 681.00,376.11 ZM 764.36 392.50 C765.08,394.38 764.07,394.37 761.56,392.47 C759.65,391.03 759.65,391.00 761.70,391.00 C762.85,391.00 764.05,391.67 764.36,392.50 ZM 622.50 692.40 C619.61,693.95 616.65,695.49 613.62,697.00 L 596.63 705.50 L 594.34 713.60 C595.48,709.35 596.24,706.31 596.29,705.75 C596.36,704.79 597.08,704.00 597.88,704.00 C599.34,704.00 611.67,698.06 622.50,692.40 ZM 1009.00 605.50 C1009.00,606.99 1009.43,607.85 1010.00,607.50 C1010.55,607.16 1011.00,606.26 1011.00,605.50 C1011.00,604.74 1010.55,603.84 1010.00,603.50 C1009.43,603.15 1009.00,604.01 1009.00,605.50 ZM 273.91 149.88 C265.64,145.96 257.27,142.00 251.50,139.28 C244.34,135.91 234.27,131.12 225.84,127.09 C246.12,136.78 263.84,144.96 265.23,145.24 C265.93,145.38 266.74,145.82 267.04,146.22 C267.23,146.47 269.96,147.92 273.91,149.88 ZM 589.00 658.44 C589.00,657.65 588.55,657.00 588.00,657.00 C587.45,657.00 587.00,657.93 587.00,659.06 C587.00,660.19 587.45,660.84 588.00,660.50 C588.55,660.16 589.00,659.23 589.00,658.44 ZM 577.51 663.93 C579.86,657.44 582.14,651.31 584.03,646.42 C586.62,639.73 590.24,631.07 594.32,621.72 C588.41,635.70 582.66,650.14 577.51,663.93 ZM 667.54 831.07 C666.86,829.96 668.44,828.77 669.36,829.69 C670.31,830.64 670.13,832.00 669.06,832.00 C668.54,832.00 667.86,831.58 667.54,831.07 ZM 679.19 844.94 C679.43,844.22 680.22,843.43 680.94,843.19 C681.69,842.94 682.06,843.31 681.81,844.06 C681.57,844.78 680.78,845.57 680.06,845.81 C679.31,846.06 678.94,845.69 679.19,844.94 ZM 178.19 263.94 C178.43,263.22 179.22,262.43 179.94,262.19 C180.69,261.94 181.06,262.31 180.81,263.06 C180.57,263.78 179.78,264.57 179.06,264.81 C178.31,265.06 177.94,264.69 178.19,263.94 ZM 723.81 817.92 C723.61,817.33 723.02,816.85 722.50,816.85 C721.98,816.85 721.39,817.33 721.19,817.92 C720.99,818.52 721.58,819.00 722.50,819.00 C723.42,819.00 724.01,818.52 723.81,817.92 ZM 846.00 690.00 C846.00,689.45 845.58,689.00 845.06,689.00 C844.54,689.00 843.84,689.45 843.50,690.00 C843.16,690.55 843.58,691.00 844.44,691.00 C845.30,691.00 846.00,690.55 846.00,690.00 ZM 690.00 830.00 C690.00,829.45 690.42,829.00 690.94,829.00 C691.46,829.00 692.16,829.45 692.50,830.00 C692.84,830.55 692.42,831.00 691.56,831.00 C690.70,831.00 690.00,830.55 690.00,830.00 ZM 1031.00 629.00 C1031.00,629.55 1031.45,630.00 1032.00,630.00 C1032.55,630.00 1033.00,629.55 1033.00,629.00 C1033.00,628.45 1032.55,628.00 1032.00,628.00 C1031.45,628.00 1031.00,628.45 1031.00,629.00 ZM 653.00 788.00 C653.00,787.45 653.45,787.00 654.00,787.00 C654.55,787.00 655.00,787.45 655.00,788.00 C655.00,788.55 654.55,789.00 654.00,789.00 C653.45,789.00 653.00,788.55 653.00,788.00 ZM 671.47 659.19 C662.79,666.51 654.12,673.00 645.07,678.97 C654.07,672.81 663.70,665.59 671.47,659.19 ZM 379.58 199.98 C378.46,199.44 377.30,198.89 376.11,198.32 C374.36,197.48 371.76,196.24 368.60,194.74 L 368.61 194.73 C368.94,194.39 369.73,194.60 370.36,195.19 C370.74,195.55 374.37,197.42 379.58,199.98 ZM 543.77 542.63 C541.08,553.43 538.40,565.97 536.94,575.50 C534.26,592.92 533.15,634.22 534.92,650.14 C533.15,634.26 534.26,592.94 536.93,575.50 C538.55,564.88 540.90,553.70 543.77,542.63 ZM 546.98 668.50 C550.23,660.28 553.24,652.78 556.07,645.88 C553.83,651.40 551.43,657.40 548.81,664.00 C547.79,666.56 546.80,669.02 545.88,671.26 C546.24,670.36 546.61,669.44 546.98,668.50 ZM 95.22 867.32 C79.32,867.32 68.57,867.23 68.42,867.08 C68.52,867.18 78.10,867.26 95.22,867.32 ZM 747.93 799.15 C747.46,799.27 746.98,799.40 746.50,799.52 C742.67,800.52 737.79,801.79 732.45,803.17 C733.30,802.94 734.15,802.71 735.00,802.49 C736.62,802.05 741.21,800.87 747.93,799.15 ZM 713.44 797.04 L 713.50 797.01 C717.61,795.08 721.21,793.38 724.36,791.89 C718.04,794.92 713.64,797.00 713.54,797.00 C713.53,797.00 713.50,797.01 713.44,797.04 ZM 211.52 75.31 C196.69,68.43 178.63,59.92 171.40,56.40 C178.63,59.92 196.69,68.43 211.52,75.31 C225.43,81.76 243.29,90.16 252.72,94.67 C239.90,88.57 225.78,81.93 211.52,75.31 ZM 537.13 448.95 C537.07,448.98 537.03,449.00 536.99,449.00 C536.96,449.00 536.93,448.92 536.90,448.77 C536.97,448.86 537.05,448.91 537.13,448.95 ZM 199.36 115.00 C199.10,115.01 198.89,117.21 198.72,123.22 C198.89,117.21 199.10,115.00 199.36,115.00 ZM 541.14 682.19 C541.10,682.26 541.07,682.30 541.05,682.33 C541.02,682.35 541.00,682.36 540.97,682.36 C541.00,682.36 541.02,682.35 541.05,682.33 C541.07,682.30 541.10,682.26 541.14,682.19 ZM 219.19 123.90 C218.66,123.64 218.15,123.40 217.65,123.16 C217.80,123.23 217.96,123.30 218.11,123.38 C218.47,123.55 218.83,123.73 219.19,123.90 Z" fill="rgb(44,118,134)"/>
<path d="M 1027.52 770.27 C1033.85,768.47 1041.13,765.94 1042.83,764.64 C1043.92,763.81 1044.11,740.99 1043.90,635.20 C1043.76,564.56 1043.34,503.79 1042.96,500.14 L 1042.28 493.50 L 1042.05 501.50 C1041.92,505.90 1041.66,518.50 1041.48,529.50 C1041.30,540.50 1041.06,552.88 1040.95,557.00 C1040.84,561.12 1040.85,566.53 1040.99,569.00 C1041.21,573.15 1040.54,582.27 1039.49,589.50 C1039.24,591.15 1038.98,597.22 1038.89,603.00 C1038.77,610.87 1038.48,612.95 1037.74,611.30 C1037.19,610.09 1035.43,608.65 1033.82,608.09 C1031.32,607.22 1031.05,606.78 1031.94,605.12 C1032.51,604.05 1033.54,602.96 1034.24,602.71 C1035.19,602.35 1035.12,601.84 1033.92,600.58 C1032.69,599.28 1031.78,599.13 1029.75,599.90 C1027.78,600.65 1026.87,600.54 1025.95,599.45 C1025.30,598.65 1024.30,598.00 1023.74,598.00 C1022.04,598.00 1020.07,594.67 1020.03,591.75 C1020.01,589.91 1020.52,589.00 1021.56,589.00 C1022.42,589.00 1022.86,588.58 1022.54,588.07 C1022.23,587.56 1022.42,586.86 1022.98,586.51 C1024.32,585.68 1024.29,584.00 1022.93,584.00 C1022.34,584.00 1021.16,583.31 1020.31,582.46 C1018.92,581.06 1018.94,580.72 1020.54,578.96 C1021.94,577.40 1022.01,577.00 1020.87,577.00 C1020.07,577.00 1019.36,576.10 1019.27,575.00 C1019.19,573.90 1019.55,573.00 1020.06,573.00 C1021.70,573.00 1021.08,570.08 1019.00,568.00 C1017.90,566.90 1016.70,566.00 1016.33,566.00 C1015.97,566.00 1015.95,566.28 1016.29,566.62 C1016.63,566.96 1016.25,567.89 1015.45,568.69 C1013.43,570.71 1013.19,577.48 1015.07,579.44 C1015.62,580.01 1014.99,581.02 1013.47,582.02 C1010.97,583.66 1010.97,583.66 1012.98,585.49 C1015.24,587.53 1015.59,589.00 1013.83,589.00 C1013.18,589.00 1011.83,589.74 1010.83,590.65 C1009.12,592.20 1009.00,592.19 1008.96,590.40 C1008.94,589.36 1008.74,584.90 1008.51,580.50 C1008.11,572.63 1007.78,558.87 1006.27,485.50 L 1005.50 448.50 L 1005.00 472.00 C1004.72,484.92 1004.36,549.27 1004.18,614.98 C1003.96,698.62 1003.55,734.66 1002.80,735.13 C1002.21,735.49 999.87,736.08 997.61,736.45 C995.53,736.78 990.09,738.02 979.58,740.60 C986.37,738.86 991.67,737.40 992.50,737.01 C993.60,736.50 996.41,735.60 998.75,735.00 L 1003.00 733.92 L 1003.00 211.00 L 996.75 210.88 C991.32,210.77 971.10,210.81 959.75,210.95 L 956.00 211.00 L 956.00 445.85 C956.00,668.28 955.91,680.77 954.25,682.16 C953.29,682.97 949.12,685.15 945.00,687.00 C940.88,688.86 929.17,694.39 919.00,699.29 C909.09,704.06 900.09,708.11 898.60,708.46 C901.59,707.62 945.20,686.52 953.00,682.13 C954.32,681.38 954.53,663.95 954.75,536.23 C954.90,452.43 954.63,389.56 954.10,387.34 C953.50,384.78 953.14,395.35 953.03,419.00 C952.93,438.52 952.70,456.30 952.50,458.50 C952.30,460.70 951.87,475.77 951.53,492.00 C950.91,522.37 950.37,530.00 948.87,530.00 C948.39,530.00 948.00,528.20 948.00,526.00 C948.00,521.84 947.52,521.37 945.00,523.00 C944.00,523.65 943.92,523.97 944.75,523.98 C945.44,523.99 946.00,525.14 946.00,526.54 C946.00,528.85 945.81,528.97 943.75,527.87 C942.51,527.20 941.39,526.74 941.25,526.83 C941.11,526.92 939.42,527.00 937.50,527.00 C935.06,527.00 934.00,526.55 934.00,525.50 C934.00,524.67 934.34,524.00 934.75,524.00 C935.16,523.99 935.62,521.97 935.76,519.50 C935.96,516.04 935.67,515.00 934.51,515.00 C932.58,515.00 932.58,512.57 934.51,509.63 C935.89,507.53 935.85,507.17 934.07,505.56 C933.00,504.60 931.65,504.10 931.06,504.46 C930.40,504.87 930.00,503.99 930.00,502.13 C930.00,499.97 930.87,498.46 933.16,496.67 C935.62,494.74 936.30,493.47 936.25,490.85 C936.10,483.13 935.58,480.84 933.50,478.59 C932.29,477.29 931.02,475.49 930.68,474.61 C930.34,473.72 929.54,473.00 928.91,473.00 C928.05,473.00 928.06,472.63 928.95,471.56 C930.21,470.04 928.83,466.00 927.05,466.00 C924.02,466.00 922.99,467.45 922.90,471.86 C922.85,474.41 922.44,477.62 922.00,479.00 L 921.20 481.50 L 920.94 479.00 C920.80,477.62 920.55,475.38 920.38,474.00 C920.21,472.62 919.83,460.48 919.52,447.00 C919.21,433.52 918.78,415.98 918.55,408.00 C918.33,400.02 917.83,374.83 917.44,352.00 C917.05,329.17 916.57,310.31 916.37,310.08 C916.36,310.08 916.36,310.08 916.36,310.08 C915.82,310.08 915.43,388.21 915.17,550.27 L 915.00 656.05 L 912.75 656.93 C911.51,657.41 905.33,660.28 899.00,663.30 C896.32,664.58 893.73,665.81 891.21,667.01 C893.71,665.79 895.34,664.95 896.00,664.57 C897.38,663.75 901.99,661.26 906.25,659.03 L 914.00 654.98 L 914.00 384.99 C914.00,189.19 913.70,115.00 912.90,115.00 C912.29,115.00 902.96,119.23 892.15,124.39 C881.34,129.56 865.08,137.27 856.00,141.52 C846.92,145.78 828.47,154.55 815.00,161.02 C780.52,177.57 766.95,184.00 766.49,184.00 C766.27,184.00 757.19,188.33 746.30,193.62 C735.41,198.91 714.35,208.99 699.50,216.02 C684.85,222.95 666.70,231.56 658.82,235.33 C691.92,219.40 734.51,198.09 730.50,199.28 C729.40,199.60 726.63,200.56 724.34,201.40 C722.05,202.24 718.94,203.15 717.42,203.43 C715.90,203.70 714.40,204.30 714.08,204.76 C712.89,206.46 708.79,205.93 708.29,204.00 C708.01,202.93 706.55,201.84 704.90,201.48 C703.31,201.13 701.64,200.19 701.19,199.38 C700.21,197.63 697.00,198.57 697.00,200.61 C697.00,202.45 694.57,202.39 693.00,200.50 C691.49,198.68 688.34,198.53 687.70,200.25 C687.41,201.03 686.97,200.75 686.54,199.50 C685.01,195.05 684.35,194.52 680.65,194.84 C678.56,195.02 677.00,194.70 677.00,194.10 C677.00,193.47 678.19,193.29 680.00,193.65 C682.36,194.12 683.00,193.90 683.00,192.60 C683.00,190.86 678.99,188.77 675.33,188.60 C672.41,188.46 671.08,187.00 673.88,187.00 C675.10,187.00 677.09,185.95 678.30,184.67 C679.51,183.39 682.86,181.07 685.75,179.51 C688.64,177.96 691.00,176.33 691.00,175.90 C691.00,175.13 678.96,180.49 652.09,193.25 C660.11,189.34 667.27,185.75 670.50,184.01 C675.45,181.34 685.35,176.48 692.50,173.20 C699.65,169.92 711.80,164.20 719.50,160.49 C738.22,151.48 792.03,125.85 826.00,109.78 C841.12,102.63 858.22,94.53 864.00,91.79 C869.78,89.05 883.05,82.84 893.50,78.00 C903.95,73.15 921.91,64.63 933.41,59.06 C944.91,53.48 954.69,49.29 955.15,49.75 C955.61,50.21 956.10,77.34 956.24,110.04 L 956.50 169.50 L 999.30 169.66 C1022.84,169.75 1042.76,170.08 1043.55,170.38 C1044.81,170.86 1045.00,209.61 1045.00,467.93 C1045.00,749.77 1044.91,764.98 1043.25,765.84 C1041.75,766.63 1034.11,768.70 1027.52,770.27 ZM 739.06 466.47 C751.68,459.75 769.75,448.72 773.50,445.33 C776.25,442.84 777.95,441.10 777.27,441.45 C776.60,441.80 774.73,442.26 773.12,442.46 C770.03,442.85 766.86,440.37 764.59,435.79 C763.87,434.33 762.37,433.38 760.48,433.17 C756.97,432.78 753.00,429.41 753.00,426.83 C753.00,424.57 751.41,424.45 750.20,426.62 C749.38,428.08 749.09,428.06 747.15,426.39 C745.97,425.38 745.00,423.53 745.00,422.28 C745.00,421.02 744.55,420.00 744.00,420.00 C743.45,420.00 743.00,420.45 743.00,421.00 C743.00,422.71 738.33,422.11 731.40,419.50 C727.75,418.12 724.00,417.00 723.07,417.00 C722.14,417.00 720.58,416.41 719.60,415.69 C717.94,414.48 717.92,414.12 719.36,410.67 C721.22,406.23 728.97,395.96 732.64,393.07 C735.76,390.61 737.78,390.48 741.64,392.49 C747.62,395.61 752.21,394.31 759.51,387.42 C761.51,385.54 763.56,384.00 764.07,384.00 C764.58,384.00 765.00,383.10 765.00,382.00 C765.00,380.72 764.33,380.00 763.15,380.00 C759.94,380.00 757.99,376.84 758.66,372.70 C759.13,369.79 758.94,369.00 757.74,369.00 C755.55,369.00 754.61,366.01 756.78,365.97 C758.33,365.94 758.32,365.84 756.66,364.87 C755.17,364.00 754.25,364.34 751.79,366.65 C747.32,370.85 734.33,386.56 727.83,395.61 C724.72,399.95 721.18,404.62 719.98,406.00 C712.54,414.49 700.10,431.77 686.92,451.45 C695.13,439.07 702.64,428.04 705.14,424.86 C706.71,422.85 708.00,420.92 708.00,420.56 C708.00,419.86 710.45,416.53 726.16,395.93 C731.85,388.46 738.70,379.79 741.39,376.65 C750.86,365.62 745.02,370.03 728.79,386.18 C701.83,413.00 667.45,453.49 647.44,482.00 C646.37,483.52 644.57,486.09 642.53,488.99 C644.96,485.42 646.95,482.35 647.70,481.00 C650.34,476.24 662.04,460.63 674.32,445.50 C690.83,425.15 709.30,404.63 729.71,383.97 C740.87,372.68 750.00,363.21 750.00,362.92 C750.00,362.09 745.62,362.43 744.14,363.38 C743.34,363.89 742.51,363.86 742.14,363.31 C741.06,361.70 737.72,360.71 732.94,360.57 C729.75,360.47 727.67,359.77 726.00,358.22 C724.69,357.00 723.09,356.00 722.43,356.00 C721.78,356.00 720.70,354.68 720.03,353.07 C718.58,349.57 715.50,346.58 714.18,347.39 C713.65,347.71 712.65,347.29 711.95,346.44 C711.25,345.60 710.03,345.16 709.25,345.46 C707.31,346.20 702.05,340.53 703.10,338.83 C704.20,337.06 701.10,333.83 698.95,334.52 C697.90,334.85 696.99,334.41 696.60,333.39 C696.14,332.20 697.70,329.99 701.98,325.78 C705.29,322.52 708.00,319.65 708.00,319.39 C708.00,317.93 702.43,322.43 694.40,330.40 C686.25,338.49 684.66,340.67 680.20,350.00 C675.45,359.95 670.42,373.12 666.27,386.15 C667.63,381.61 668.97,376.97 670.11,372.85 C672.18,365.39 678.68,349.93 682.44,343.51 C686.80,336.08 693.55,328.60 701.63,322.24 C712.21,313.93 743.57,293.88 759.00,285.58 C773.57,277.74 807.82,260.92 816.50,257.35 C827.12,252.97 849.22,244.91 852.24,244.30 L 855.18 243.71 L 854.60 249.11 C854.28,252.07 853.54,259.67 852.97,266.00 C850.70,290.98 843.59,330.65 835.50,363.50 C823.95,410.36 824.22,409.87 798.50,429.12 C782.19,441.32 754.03,458.97 739.06,466.47 ZM 700.37 403.54 C699.52,401.71 699.52,400.97 700.37,400.62 C701.20,400.28 701.20,399.93 700.38,399.33 C698.55,397.97 697.88,394.43 698.94,391.65 C699.78,389.46 699.56,388.65 697.58,386.68 C696.29,385.38 694.92,382.51 694.55,380.29 L 693.87 376.26 L 701.18 376.76 C708.32,377.24 711.50,378.38 710.46,380.06 C709.67,381.34 713.41,382.97 715.73,382.36 C716.85,382.07 718.08,382.31 718.45,382.91 C718.82,383.51 719.94,384.00 720.95,384.00 C725.10,384.00 723.55,387.06 714.67,396.38 C705.00,406.54 702.37,407.85 700.37,403.54 ZM 670.00 386.07 C670.00,384.41 673.64,374.55 675.89,370.09 C676.28,369.32 678.49,368.50 680.80,368.29 C684.32,367.96 685.00,368.19 685.02,369.70 C685.03,371.23 685.18,371.27 686.00,370.00 C686.80,368.76 686.97,368.84 687.00,370.50 C687.03,372.16 687.20,372.24 688.00,371.00 C688.84,369.71 688.97,369.73 688.98,371.19 C688.99,372.12 688.54,373.16 687.98,373.51 C687.42,373.86 687.23,374.56 687.55,375.08 C687.87,375.59 687.85,376.88 687.52,377.94 C687.06,379.40 685.61,380.03 681.61,380.53 C675.40,381.31 674.85,381.61 673.25,385.25 C671.86,388.43 670.00,388.89 670.00,386.07 ZM 760.70 549.27 C765.98,541.68 772.17,530.76 776.56,520.99 C779.40,514.66 783.12,506.72 784.82,503.35 C792.33,488.47 806.82,451.98 805.20,452.02 C803.21,452.06 801.77,454.03 802.18,456.16 C802.70,458.90 797.95,464.71 796.12,463.57 C794.49,462.57 794.75,458.45 796.52,456.98 C799.44,454.56 797.25,455.01 786.51,459.04 C781.64,460.87 775.77,462.70 769.72,464.36 C770.31,464.18 770.71,464.02 770.90,463.92 C771.78,463.42 777.00,461.41 782.50,459.46 C788.00,457.51 795.54,454.52 799.26,452.80 C802.98,451.09 806.30,449.97 806.63,450.30 C809.42,453.08 780.10,518.36 765.46,542.00 C763.73,544.79 762.19,547.17 760.70,549.27 ZM 808.70 420.12 C811.89,417.44 815.69,413.95 817.14,412.37 C819.99,409.29 824.42,401.08 825.45,397.00 L 826.08 394.50 L 824.29 396.88 C821.98,399.94 814.79,407.96 808.75,414.19 C803.84,419.26 800.22,425.00 801.92,425.00 C802.46,425.00 805.51,422.81 808.70,420.12 ZM 1035.72 631.02 C1035.42,629.91 1035.56,629.23 1036.01,629.50 C1036.46,629.78 1037.02,629.45 1037.25,628.76 C1037.73,627.34 1030.21,620.10 1028.19,620.04 C1027.47,620.02 1027.14,619.59 1027.45,619.09 C1027.76,618.58 1027.45,617.94 1026.76,617.66 C1026.07,617.39 1026.40,617.11 1027.50,617.05 C1029.38,616.95 1029.39,616.88 1027.69,615.89 C1026.27,615.06 1026.14,614.54 1027.07,613.42 C1028.38,611.84 1031.46,611.44 1030.52,612.97 C1030.19,613.50 1031.06,614.23 1032.45,614.58 C1033.85,614.93 1034.74,615.62 1034.43,616.11 C1034.13,616.60 1034.36,617.00 1034.94,617.00 C1035.52,617.00 1036.00,616.33 1036.00,615.50 C1036.00,614.67 1036.40,614.00 1036.88,614.00 C1039.26,614.00 1039.92,629.99 1037.62,631.90 C1036.54,632.80 1036.13,632.61 1035.72,631.02 ZM 743.12 299.09 C756.03,292.09 764.48,284.26 752.70,290.21 C749.29,291.94 745.38,294.11 744.00,295.04 C742.62,295.97 736.89,299.72 731.25,303.36 C714.94,313.92 717.47,313.01 743.12,299.09 ZM 599.00 222.57 C599.00,221.27 601.88,219.71 604.57,219.56 C605.15,219.53 606.42,218.71 607.39,217.75 C608.88,216.26 610.08,215.74 611.25,216.07 C611.39,216.11 612.73,215.67 614.24,215.10 C617.16,213.99 620.36,214.61 619.43,216.11 C618.76,217.20 613.45,220.02 611.15,220.50 C610.24,220.69 607.53,221.56 605.12,222.42 C599.74,224.36 599.00,224.38 599.00,222.57 ZM 920.75 500.42 C919.70,499.36 919.84,489.80 920.94,488.07 C921.61,487.01 922.02,487.59 922.53,490.29 C923.27,494.25 921.97,501.64 920.75,500.42 ZM 929.00 462.50 C930.56,460.62 928.74,458.00 925.88,458.00 C923.84,458.00 923.72,458.36 924.63,461.75 C925.33,464.34 927.20,464.67 929.00,462.50 ZM 1021.67 607.33 C1020.31,605.98 1021.07,604.29 1023.53,603.17 C1025.60,602.22 1026.17,602.29 1026.64,603.51 C1027.88,606.74 1024.03,609.70 1021.67,607.33 ZM 838.74 344.25 C840.73,335.79 841.05,334.00 840.55,334.00 C839.36,334.00 837.55,338.96 837.00,343.75 C836.25,350.29 837.25,350.58 838.74,344.25 ZM 641.00 237.12 C641.00,236.64 641.67,235.68 642.50,235.00 C643.33,234.32 644.00,233.08 644.00,232.26 C644.00,231.04 644.28,230.99 645.50,232.00 C647.47,233.63 647.39,234.98 645.25,236.61 C643.24,238.14 641.00,238.41 641.00,237.12 ZM 663.58 395.01 C661.91,400.79 660.47,406.39 659.36,411.50 C658.89,413.70 658.05,415.40 657.50,415.27 C656.55,415.05 654.66,392.27 654.25,378.42 C654.71,389.36 656.06,406.56 656.84,409.49 L 657.55 412.15 L 659.16 408.32 C659.91,406.53 661.61,401.37 663.58,395.01 ZM 927.02 453.96 C928.14,451.87 927.51,448.00 926.05,448.00 C924.90,448.00 924.09,451.62 924.71,454.00 C925.37,456.50 925.66,456.50 927.02,453.96 ZM 647.20 379.12 C645.46,378.05 647.26,373.33 649.41,373.33 C651.29,373.33 651.38,374.68 649.70,377.71 C648.91,379.12 648.02,379.63 647.20,379.12 ZM 619.05 221.09 C618.30,219.69 618.32,218.92 619.11,218.43 C620.13,217.80 621.95,219.55 621.98,221.19 C622.02,222.93 619.99,222.86 619.05,221.09 ZM 681.00 376.11 C681.00,374.88 678.18,373.90 677.56,374.90 C677.28,375.35 677.34,376.01 677.69,376.36 C678.65,377.31 681.00,377.13 681.00,376.11 ZM 764.36 392.50 C764.05,391.67 762.85,391.00 761.70,391.00 C759.65,391.00 759.65,391.03 761.56,392.47 C764.07,394.37 765.08,394.38 764.36,392.50 ZM 1009.00 605.50 C1009.00,604.01 1009.43,603.15 1010.00,603.50 C1010.55,603.84 1011.00,604.74 1011.00,605.50 C1011.00,606.26 1010.55,607.16 1010.00,607.50 C1009.43,607.85 1009.00,606.99 1009.00,605.50 ZM 1031.00 629.00 C1031.00,628.45 1031.45,628.00 1032.00,628.00 C1032.55,628.00 1033.00,628.45 1033.00,629.00 C1033.00,629.55 1032.55,630.00 1032.00,630.00 C1031.45,630.00 1031.00,629.55 1031.00,629.00 ZM 535.61 815.49 C536.30,814.38 538.24,806.40 540.10,796.92 L 540.25 796.20 C540.16,796.63 540.08,797.06 539.99,797.50 C538.20,806.85 536.39,814.88 535.97,815.34 C535.90,815.42 535.78,815.47 535.61,815.49 ZM 958.50 787.92 C929.91,795.06 903.82,801.65 900.50,802.55 C903.82,801.65 929.91,795.05 958.50,787.90 C974.50,783.89 989.32,780.06 999.59,777.31 C999.78,777.28 999.96,777.25 1000.14,777.22 C990.00,779.93 974.92,783.81 958.50,787.92 ZM 734.46 470.59 C737.22,471.09 745.58,470.03 757.52,467.42 C746.74,469.87 737.31,471.30 734.46,470.59 ZM 547.19 763.00 C551.13,745.96 555.41,731.30 564.25,702.50 C555.77,730.12 551.14,746.13 547.19,763.00 ZM 644.42 520.13 C634.14,538.41 629.00,548.08 628.93,549.26 C629.01,547.84 635.88,535.10 644.42,520.13 ZM 1000.69 777.07 C1000.85,777.02 1001.00,776.96 1001.14,776.89 C1007.36,775.21 1011.67,773.98 1013.20,773.44 C1013.15,773.46 1013.11,773.48 1013.07,773.51 C1012.48,773.83 1007.90,775.14 1000.69,777.07 ZM 616.77 210.09 C598.47,218.80 584.56,225.37 574.73,229.94 C583.75,225.72 597.10,219.42 616.77,210.09 ZM 751.71 559.31 C748.75,561.87 745.23,564.39 740.53,567.50 C744.44,564.92 748.63,561.83 751.71,559.31 ZM 1014.41 772.90 C1015.91,772.22 1017.25,771.91 1017.54,772.21 C1017.55,772.21 1017.56,772.22 1017.57,772.23 C1016.81,772.18 1015.57,772.46 1014.41,772.90 ZM 664.70 485.81 C666.54,482.85 668.78,479.31 671.26,475.44 C668.03,480.51 664.86,485.58 661.80,490.54 C662.80,488.91 663.77,487.33 664.70,485.81 ZM 505.85 801.53 C492.06,794.83 477.83,788.00 477.55,788.00 C477.86,788.00 492.11,794.85 505.85,801.53 ZM 672.50 816.65 C672.51,816.21 673.07,815.80 674.15,815.46 C675.44,815.05 684.78,810.73 694.89,805.86 C684.78,810.73 675.48,815.04 674.24,815.43 C673.31,815.72 672.65,816.21 672.50,816.65 ZM 592.64 568.77 C594.98,564.60 597.51,560.16 600.27,555.35 C603.14,550.33 606.55,544.60 610.16,538.67 C606.53,544.65 603.09,550.44 600.19,555.50 C597.46,560.25 594.96,564.64 592.64,568.77 ZM 733.53 470.17 C733.17,469.87 733.37,469.55 734.21,469.03 C733.56,469.51 733.35,469.89 733.53,470.17 ZM 654.16 368.05 C654.10,366.09 653.97,364.69 653.79,364.46 C653.79,364.46 653.80,364.46 653.80,364.47 C654.01,364.68 654.14,366.12 654.16,368.05 ZM 732.45 803.17 L 730.94 803.56 C732.57,803.13 733.94,802.77 735.00,802.49 C734.15,802.71 733.30,802.94 732.46,803.17 Z" fill="rgb(63,152,155)"/>
<path d="M 0.00 469.00 L 0.00 0.00 L 559.00 0.00 L 1118.00 0.00 L 1118.00 469.00 L 1118.00 938.00 L 559.00 938.00 L 0.00 938.00 L 0.00 469.00 ZM 611.50 866.75 L 1044.50 866.50 L 1044.50 847.00 L 1044.50 827.50 L 928.75 827.00 C854.76,826.68 812.91,826.15 812.75,825.52 C812.43,824.27 812.72,824.18 844.00,816.47 C858.58,812.88 871.17,809.75 872.00,809.53 C872.83,809.30 878.22,808.00 884.00,806.65 C889.78,805.29 897.20,803.45 900.50,802.55 C903.80,801.65 929.90,795.07 958.50,787.92 C987.10,780.77 1011.66,774.28 1013.07,773.51 C1014.49,772.73 1016.51,772.16 1017.57,772.23 C1019.81,772.38 1040.65,767.20 1043.25,765.84 C1044.91,764.98 1045.00,749.77 1045.00,467.93 C1045.00,209.61 1044.81,170.86 1043.55,170.38 C1042.76,170.08 1022.84,169.75 999.30,169.66 L 956.50 169.50 L 956.24 110.04 C956.10,77.34 955.61,50.21 955.15,49.75 C954.69,49.29 944.91,53.48 933.41,59.06 C921.91,64.63 903.95,73.15 893.50,78.00 C883.05,82.84 869.78,89.05 864.00,91.79 C858.22,94.53 841.12,102.63 826.00,109.78 C792.03,125.85 738.22,151.48 719.50,160.49 C711.80,164.20 699.65,169.92 692.50,173.20 C685.35,176.48 675.45,181.34 670.50,184.01 C665.55,186.68 651.38,193.67 639.00,199.54 C569.11,232.72 557.76,238.00 556.43,238.00 C555.62,238.00 550.36,235.68 544.73,232.85 C534.95,227.93 488.75,205.98 432.00,179.30 C417.42,172.45 401.00,164.69 395.50,162.06 C386.18,157.61 367.04,148.70 355.50,143.46 C347.63,139.87 323.48,128.41 312.50,123.04 C307.00,120.35 300.92,117.48 299.00,116.65 C295.17,115.01 279.32,107.48 254.50,95.53 C245.70,91.29 226.36,82.19 211.52,75.31 C196.69,68.43 178.63,59.92 171.40,56.40 C164.17,52.88 157.97,50.00 157.63,50.00 C157.29,50.00 156.90,76.89 156.76,109.75 L 156.50 169.50 L 112.25 169.76 L 68.00 170.02 L 68.00 467.97 L 68.00 765.92 L 71.75 766.93 C75.91,768.05 157.13,788.52 244.29,810.42 C275.52,818.27 301.06,825.10 301.04,825.60 C301.02,826.13 253.09,826.60 184.50,826.75 L 68.00 827.01 L 68.00 846.84 C68.00,857.74 68.19,866.85 68.42,867.08 C68.65,867.31 93.51,867.39 123.67,867.25 C153.82,867.11 373.35,866.88 611.50,866.75 ZM 410.00 810.51 C394.33,806.51 352.92,796.02 318.00,787.20 C247.48,769.37 222.56,763.04 175.50,750.96 C157.90,746.45 135.85,740.87 126.50,738.57 L 109.50 734.39 L 109.25 472.69 L 109.00 211.00 L 133.00 211.00 L 157.00 211.00 L 157.00 445.88 C157.00,632.58 157.26,680.96 158.25,681.75 C159.62,682.84 205.27,704.97 230.00,716.53 C238.52,720.51 251.80,726.79 259.50,730.48 C267.20,734.17 289.70,744.85 309.50,754.21 C329.30,763.58 355.17,775.87 367.00,781.52 C398.94,796.78 426.68,809.90 433.82,813.12 C437.32,814.70 439.85,816.43 439.51,816.99 C439.16,817.54 438.80,817.95 438.69,817.88 C438.59,817.82 425.67,814.50 410.00,810.51 ZM 672.54 817.07 C672.23,816.56 672.99,815.82 674.24,815.43 C675.48,815.04 684.78,810.73 694.89,805.86 C705.01,800.99 713.40,797.00 713.54,797.00 C713.68,797.00 722.51,792.80 733.15,787.66 C743.79,782.53 754.30,777.49 756.50,776.48 C758.70,775.47 767.03,771.51 775.00,767.67 C782.97,763.84 792.65,759.27 796.50,757.51 C800.35,755.75 809.12,751.60 816.00,748.27 C837.58,737.85 868.22,723.31 875.25,720.15 C878.96,718.49 882.00,716.75 882.00,716.30 C882.00,715.12 889.93,711.84 891.07,712.54 C891.59,712.86 892.27,712.46 892.58,711.64 C893.20,710.05 895.28,708.93 898.50,708.48 C899.60,708.33 908.83,704.19 919.00,699.29 C929.17,694.39 940.88,688.86 945.00,687.00 C949.12,685.15 953.29,682.97 954.25,682.16 C955.91,680.77 956.00,668.28 956.00,445.85 L 956.00 211.00 L 959.75 210.95 C971.10,210.81 991.32,210.77 996.75,210.88 L 1003.00 211.00 L 1003.00 472.46 L 1003.00 733.92 L 998.75 735.00 C996.41,735.60 993.60,736.50 992.50,737.01 C991.40,737.52 982.40,739.94 972.50,742.39 C962.60,744.83 939.20,750.72 920.50,755.47 C901.80,760.23 854.55,772.17 815.50,782.02 C776.45,791.87 740.22,801.08 735.00,802.49 C723.50,805.58 674.38,818.00 673.64,818.00 C673.35,818.00 672.86,817.58 672.54,817.07 ZM 531.00 813.94 C527.40,811.91 478.12,788.00 477.55,788.00 C477.37,788.00 470.09,784.58 461.36,780.40 C452.64,776.22 436.95,768.75 426.50,763.79 C416.05,758.83 398.27,750.38 387.00,745.01 C375.73,739.64 356.38,730.51 344.00,724.72 C311.98,709.74 288.71,698.76 264.00,687.00 C252.18,681.36 233.54,672.54 222.59,667.39 C211.64,662.23 201.62,657.33 200.34,656.49 L 198.00 654.95 L 198.00 384.98 C198.00,157.58 198.22,115.00 199.36,115.00 C200.12,115.00 208.10,118.55 217.11,122.90 C226.13,127.24 241.60,134.62 251.50,139.28 C261.40,143.95 278.95,152.26 290.50,157.75 C302.05,163.25 323.47,173.39 338.11,180.30 C352.74,187.21 369.84,195.32 376.11,198.32 C405.22,212.28 413.43,216.00 415.08,216.00 C416.06,216.00 417.48,216.62 418.24,217.38 C418.99,218.14 441.41,229.17 468.06,241.90 C494.70,254.62 520.78,267.18 526.00,269.80 L 535.50 274.57 L 535.76 361.78 C535.92,417.66 536.36,449.00 536.99,449.00 C537.52,449.00 539.88,445.59 542.23,441.42 C547.24,432.53 565.81,403.98 572.50,394.90 L 577.14 388.59 L 576.99 346.04 C576.91,322.64 576.88,297.05 576.92,289.18 L 577.00 274.86 L 605.25 261.08 C620.79,253.50 635.97,246.14 639.00,244.73 C642.03,243.32 650.80,239.16 658.50,235.48 C666.20,231.80 684.65,223.04 699.50,216.02 C714.35,208.99 735.41,198.91 746.30,193.62 C757.19,188.33 766.27,184.00 766.49,184.00 C766.95,184.00 780.52,177.57 815.00,161.02 C828.47,154.55 846.92,145.78 856.00,141.52 C865.08,137.27 881.34,129.56 892.15,124.39 C902.96,119.23 912.29,115.00 912.90,115.00 C913.70,115.00 914.00,189.19 914.00,384.99 L 914.00 654.98 L 906.25 659.03 C901.99,661.26 897.38,663.75 896.00,664.57 C893.50,666.04 877.03,673.87 852.50,685.24 C845.35,688.55 839.28,691.54 839.00,691.88 C838.72,692.22 837.15,693.02 835.50,693.65 C832.42,694.82 804.98,707.71 781.00,719.24 C756.57,730.98 737.05,740.24 675.00,769.51 C655.47,778.72 626.56,792.52 610.74,800.16 C594.92,807.81 580.78,814.51 579.33,815.06 L 576.69 816.07 L 577.34 804.68 C578.84,778.53 583.53,751.90 591.83,722.50 L 596.63 705.50 L 613.62 697.00 C646.03,680.79 670.46,662.59 699.08,633.35 C715.42,616.66 725.47,604.00 722.39,604.00 C722.06,604.00 719.16,604.68 715.95,605.51 C700.30,609.57 658.68,613.62 653.42,611.61 C651.84,611.00 651.96,610.73 654.42,609.46 C655.96,608.66 657.67,608.00 658.20,608.00 C661.36,608.00 695.00,593.51 695.00,592.15 C695.00,591.10 697.47,589.91 700.50,589.49 C703.78,589.03 728.68,575.36 740.53,567.50 C753.51,558.90 757.54,554.79 765.46,542.00 C780.10,518.36 809.42,453.08 806.63,450.30 C806.30,449.97 802.98,451.09 799.26,452.80 C795.54,454.52 788.00,457.51 782.50,459.46 C777.00,461.41 771.78,463.42 770.90,463.92 C770.01,464.42 764.16,465.96 757.90,467.34 C737.90,471.73 727.75,471.85 736.79,467.58 C751.01,460.86 781.33,441.97 798.50,429.12 C824.22,409.87 823.95,410.36 835.50,363.50 C843.59,330.65 850.70,290.98 852.97,266.00 C853.54,259.67 854.28,252.07 854.60,249.11 L 855.18 243.71 L 852.24 244.30 C849.22,244.91 827.12,252.97 816.50,257.35 C807.82,260.92 773.57,277.74 759.00,285.58 C743.57,293.88 712.21,313.93 701.63,322.24 C693.55,328.60 686.80,336.08 682.44,343.51 C678.68,349.93 672.18,365.39 670.11,372.85 C666.44,386.09 660.73,404.58 659.16,408.32 L 657.55 412.15 L 656.84 409.49 C655.82,405.67 653.84,377.56 654.12,370.76 C654.24,367.60 654.10,364.77 653.80,364.47 C653.01,363.68 625.19,392.82 616.52,403.50 C593.97,431.31 577.11,458.14 562.17,490.00 C551.08,513.64 541.34,546.67 536.93,575.50 C534.26,592.94 533.15,634.26 534.92,650.14 C536.53,664.63 540.09,683.32 541.05,682.33 C541.49,681.87 544.98,673.62 548.81,664.00 C570.21,610.14 576.76,596.31 600.19,555.50 C610.52,537.49 627.54,510.32 636.27,497.90 C640.29,492.18 645.32,485.02 647.44,482.00 C667.45,453.49 701.83,413.00 728.79,386.18 C745.02,370.03 750.86,365.62 741.39,376.65 C738.70,379.79 731.85,388.46 726.16,395.93 C710.45,416.53 708.00,419.86 708.00,420.56 C708.00,420.92 706.71,422.85 705.14,424.86 C700.17,431.18 675.46,468.44 664.70,485.81 C650.44,508.86 629.07,546.77 628.93,549.26 C628.90,549.94 627.54,552.75 625.91,555.50 C617.57,569.63 593.63,621.58 584.03,646.42 C577.94,662.17 567.81,690.89 564.25,702.50 C550.44,747.49 547.76,757.97 540.10,796.92 C538.11,807.05 536.04,815.47 535.49,815.62 C534.95,815.78 532.92,815.02 531.00,813.94 Z" fill="rgb(251,252,251)"/>
</g>
</svg>