<svg xmlns="http://www.w3.org/2000/svg" width="1024" height="1024" viewBox="0 0 1024 1024">
<g>
<path d="M 671.00 577.00 C671.00,578.13 309.80,578.46 308.67,577.33 C308.30,576.97 308.00,572.79 308.00,568.04 L 308.00 559.42 L 359.60 559.46 C387.97,559.48 411.33,559.27 411.50,559.00 C411.67,558.72 388.57,552.61 360.16,545.41 L 308.50 532.33 L 307.99 267.00 L 348.00 267.00 L 348.00 240.50 C348.00,222.93 348.35,214.00 349.03,214.00 C350.03,214.00 358.13,217.99 360.79,219.80 C361.61,220.35 360.18,220.63 356.95,220.57 C352.32,220.48 351.67,220.74 350.40,223.19 C348.85,226.20 348.39,244.51 349.85,245.41 C350.32,245.70 351.02,250.05 351.40,255.08 C352.18,265.43 351.34,267.79 346.08,269.97 C342.88,271.29 342.85,271.37 342.51,281.50 L 342.41 284.50 L 326.91 285.50 L 326.98 401.47 C327.01,465.25 327.37,517.72 327.77,518.07 C328.17,518.42 337.73,521.02 349.00,523.85 C360.27,526.68 392.63,534.86 420.91,542.03 C449.18,549.20 472.66,554.94 473.09,554.78 C473.51,554.63 445.54,541.05 410.93,524.61 L 348.00 494.72 L 348.00 390.36 C348.00,323.09 348.35,286.00 348.98,286.00 C349.51,286.00 350.63,287.03 351.45,288.29 C352.60,290.03 352.73,291.41 352.01,294.04 C351.47,296.03 351.37,302.60 351.78,309.50 L 352.50 321.50 L 355.00 321.18 C356.38,321.00 357.95,320.29 358.50,319.59 C359.05,318.89 360.06,318.51 360.75,318.75 C361.44,318.98 362.03,318.34 362.07,317.33 C362.13,315.67 362.22,315.69 363.00,317.50 C363.54,318.75 363.85,314.83 363.83,307.00 C363.81,300.12 363.48,295.62 363.08,297.00 L 362.37 299.50 L 361.80 296.64 C361.49,295.06 361.59,292.59 362.03,291.14 L 362.83 288.50 L 363.06 291.00 C363.22,292.83 363.48,292.42 364.00,289.50 C365.02,283.81 365.20,293.70 365.90,395.39 L 366.50 483.28 L 395.00 496.73 C461.68,528.20 493.24,543.17 504.71,548.77 L 516.91 554.73 L 518.04 549.12 C521.34,532.69 523.29,524.82 527.51,510.86 C533.14,492.24 540.80,471.26 540.97,474.01 C541.01,474.69 535.61,490.24 533.07,496.73 L 531.02 501.96 L 534.59 505.53 C536.56,507.49 538.91,509.02 539.83,508.93 C540.75,508.84 541.81,508.82 542.20,508.88 C542.82,508.99 540.82,517.29 539.27,521.00 C538.54,522.74 538.67,521.93 536.54,537.82 C536.39,538.91 536.25,539.94 536.12,540.90 C535.05,548.69 534.55,552.34 535.91,553.27 C537.11,554.09 539.76,552.79 544.76,550.34 C545.45,550.00 546.20,549.64 546.99,549.25 C562.34,541.80 583.12,532.00 583.59,532.00 C583.79,532.00 583.44,533.14 582.81,534.52 C581.64,537.09 580.17,537.74 574.07,538.41 C569.91,538.86 567.82,541.38 568.66,544.91 C569.00,546.34 569.39,547.63 569.52,547.80 C569.65,547.96 573.08,548.47 577.13,548.93 C584.97,549.82 586.69,549.31 591.25,544.75 C592.65,543.35 594.80,542.58 597.62,542.45 C603.32,542.21 601.93,543.43 590.25,548.96 C585.16,551.36 581.00,553.66 581.00,554.06 C581.00,554.80 592.24,552.50 602.00,549.76 C605.03,548.91 608.84,547.91 610.48,547.53 L 613.47 546.84 L 610.83 548.92 C609.37,550.07 606.77,551.00 605.04,551.00 C600.78,551.00 593.00,553.02 593.00,554.13 C593.00,557.24 580.15,560.67 578.50,558.00 C578.16,557.45 576.41,557.00 574.62,557.00 C572.13,557.00 570.74,556.22 568.74,553.72 C566.18,550.50 562.61,549.20 561.46,551.06 C560.78,552.17 554.00,552.34 554.00,551.25 C554.00,550.84 552.50,550.50 550.66,550.50 C547.98,550.50 547.41,550.84 547.77,552.24 C548.02,553.20 548.64,553.72 549.14,553.41 C549.64,553.10 551.33,554.21 552.88,555.87 C554.44,557.54 557.59,559.65 559.88,560.57 C562.18,561.49 564.64,563.07 565.35,564.09 C567.87,567.69 578.35,574.00 581.81,574.00 C583.76,574.00 584.86,574.41 584.50,575.00 C584.09,575.66 598.66,576.00 627.44,576.00 C655.81,576.00 671.00,576.35 671.00,577.00 ZM 462.43 765.50 C454.90,767.09 447.32,767.24 439.52,765.93 C431.98,764.67 420.52,760.18 418.00,757.50 C416.03,755.40 415.90,754.74 416.89,751.87 C418.32,747.78 420.81,745.00 423.04,745.00 C424.00,745.00 427.86,746.45 431.64,748.21 C437.41,750.91 439.95,751.49 447.60,751.83 C455.11,752.16 457.49,751.88 461.21,750.23 C468.36,747.07 472.98,739.23 472.99,730.25 C473.00,726.80 471.97,726.13 470.11,728.37 C469.48,729.12 466.17,731.01 462.74,732.56 C457.48,734.94 455.16,735.39 447.97,735.41 C440.22,735.43 438.75,735.10 431.97,731.85 C417.92,725.13 411.80,716.05 411.18,701.00 C410.72,689.91 413.25,682.73 420.18,675.40 C427.02,668.17 434.90,664.75 446.00,664.20 C456.17,663.70 461.16,664.89 467.93,669.45 C472.05,672.22 473.00,672.54 473.00,671.15 C473.00,670.21 473.70,668.44 474.56,667.22 C475.86,665.36 477.05,665.00 481.93,665.00 C485.77,665.00 488.16,665.49 488.95,666.43 C489.83,667.50 490.05,677.15 489.80,704.18 C489.49,738.30 489.34,740.81 487.37,745.63 C486.22,748.45 484.12,752.28 482.71,754.13 C478.99,759.01 470.43,763.80 462.43,765.50 ZM 365.67 738.51 C351.99,742.57 337.53,738.54 327.42,727.85 C320.17,720.18 318.50,715.16 318.50,701.00 C318.50,687.43 320.01,683.11 327.55,675.05 C334.31,667.83 341.31,664.75 352.27,664.20 C362.49,663.68 368.33,665.01 374.04,669.14 C376.21,670.71 378.21,672.00 378.49,672.00 C378.77,672.00 379.00,663.69 379.00,653.54 C379.00,653.01 379.00,652.50 379.00,652.01 C379.00,639.88 379.00,635.48 381.11,633.89 C382.30,632.99 384.18,632.99 387.13,633.00 C387.34,633.00 387.56,633.00 387.78,633.00 C388.26,633.00 388.71,632.99 389.14,632.98 C390.69,632.95 391.89,632.92 392.82,633.41 C396.03,635.09 396.02,642.87 396.00,677.43 C396.00,680.20 396.00,683.14 396.00,686.26 C396.00,689.07 396.00,691.73 396.00,694.25 C396.02,729.56 396.02,737.10 392.98,738.64 C392.15,739.06 391.10,739.04 389.76,739.01 C389.41,739.01 389.04,739.00 388.65,739.00 C382.84,739.00 379.63,736.62 380.38,732.87 C380.69,731.29 380.71,730.00 380.42,730.00 C380.12,730.00 377.81,731.58 375.29,733.51 C372.76,735.44 368.43,737.69 365.67,738.51 ZM 563.00 737.46 C556.19,740.21 540.16,740.57 532.80,738.13 C521.17,734.29 511.95,726.58 507.72,717.18 C504.48,709.98 504.12,695.35 506.99,687.72 C510.04,679.61 518.08,671.14 526.22,667.46 C535.00,663.48 547.84,662.85 557.86,665.89 C570.80,669.82 579.62,680.61 581.98,695.40 C582.82,700.62 582.77,702.71 581.77,704.81 L 580.47 707.50 L 522.04 708.50 L 525.02 713.70 C531.90,725.75 549.09,729.03 562.47,720.85 C567.14,717.99 567.60,717.90 569.97,719.33 C571.36,720.16 573.35,721.97 574.38,723.34 C578.12,728.28 574.45,732.83 563.00,737.46 ZM 288.27 737.08 C281.76,739.60 266.31,740.61 259.63,738.94 C252.88,737.27 242.08,730.93 238.49,726.55 C222.43,706.95 228.27,678.32 250.56,667.42 C256.12,664.70 257.27,664.51 268.50,664.53 C281.35,664.55 284.58,665.38 292.28,670.70 C300.35,676.28 307.00,689.35 307.00,699.65 C307.00,700.11 307.00,700.54 307.01,700.95 C307.03,703.04 307.05,704.51 306.39,705.54 C304.80,708.02 299.33,708.02 280.79,708.00 C279.27,708.00 277.66,708.00 275.96,708.00 C259.78,708.00 247.00,708.39 247.00,708.89 C247.00,709.37 248.46,711.95 250.25,714.61 C254.87,721.50 262.51,725.29 271.73,725.29 C278.47,725.29 281.41,724.33 289.70,719.41 L 292.91 717.52 L 296.45 720.95 C302.93,727.23 300.30,732.42 288.27,737.08 ZM 222.17 736.35 C220.56,737.81 216.85,738.00 190.35,738.00 L 160.35 738.00 L 158.17 735.69 C156.01,733.38 156.00,733.23 156.00,687.26 L 156.00 641.15 L 158.63 639.07 C162.31,636.18 169.21,636.24 171.96,639.19 C173.94,641.32 174.00,642.50 174.00,682.19 L 174.00 723.00 L 197.80 723.00 C214.98,723.00 221.93,723.33 222.80,724.20 C224.73,726.13 224.30,734.41 222.17,736.35 ZM 613.69 736.00 C612.62,738.16 611.68,738.54 606.77,738.80 C602.13,739.04 600.72,738.72 599.05,737.05 C597.06,735.06 597.00,733.93 597.00,701.20 C597.00,676.24 597.31,667.09 598.20,666.20 C598.88,665.52 602.14,665.00 605.72,665.00 C611.59,665.00 612.12,665.18 613.02,667.57 C613.56,668.98 614.00,671.16 614.00,672.41 C614.00,674.54 614.27,674.44 617.93,670.95 C622.55,666.56 630.12,663.75 636.19,664.19 L 640.50 664.50 L 640.80 670.84 C641.16,678.49 640.15,679.99 634.63,680.02 C629.77,680.05 623.39,682.76 620.30,686.13 C615.52,691.33 614.82,695.05 614.88,714.93 C614.92,727.80 614.55,734.27 613.69,736.00 ZM 347.01 722.29 C351.73,724.77 353.37,725.12 358.71,724.79 C366.71,724.30 372.28,720.53 376.35,712.86 C378.90,708.05 379.15,706.76 378.75,700.26 C377.90,686.43 369.88,678.44 357.00,678.58 C344.08,678.72 336.45,685.86 335.28,698.91 C334.30,709.80 338.26,717.69 347.01,722.29 ZM 441.02 718.98 C447.80,722.13 457.46,721.46 463.19,717.43 C468.72,713.54 471.73,709.00 472.60,703.20 C473.98,693.98 469.59,684.94 461.69,680.76 C455.94,677.72 445.25,677.73 439.38,680.77 C428.79,686.27 425.17,698.58 430.87,709.75 C433.27,714.44 435.35,716.34 441.02,718.98 ZM 247.43 693.25 L 246.78 696.00 L 290.22 696.00 L 289.53 693.25 C288.39,688.67 284.98,684.01 280.70,681.18 C277.20,678.87 275.62,678.50 269.07,678.50 C263.34,678.50 260.53,679.01 257.50,680.59 C253.22,682.83 248.49,688.77 247.43,693.25 ZM 522.00 694.96 C522.00,695.65 529.28,696.00 543.50,696.00 C544.29,696.00 545.05,696.00 545.79,696.00 C559.72,696.00 564.10,696.01 564.85,694.36 C565.19,693.60 564.77,692.50 564.16,690.89 C564.09,690.71 564.01,690.51 563.94,690.32 C559.08,677.47 539.20,673.80 528.66,683.80 C525.86,686.46 522.00,692.93 522.00,694.96 ZM 523.49 484.74 C521.29,490.38 519.21,494.99 518.86,494.99 C517.63,495.01 516.97,488.32 516.62,472.00 C516.38,461.19 516.50,458.43 516.94,464.00 C517.32,468.67 517.75,471.83 517.90,471.00 C518.05,470.17 518.60,470.96 519.12,472.75 C520.25,476.68 522.41,476.93 525.59,473.50 C528.02,470.87 529.68,470.12 528.32,472.25 C527.89,472.94 527.52,473.73 527.50,474.00 C527.48,474.27 525.68,479.11 523.49,484.74 ZM 367.28 242.55 C365.09,241.89 365.06,242.03 364.75,253.69 C364.57,260.19 364.33,263.92 364.20,262.00 C364.02,259.33 363.74,258.86 363.00,260.00 C362.22,261.21 362.03,261.05 362.02,259.19 C362.01,257.90 362.44,257.16 363.00,257.50 C363.64,257.89 364.00,255.15 364.00,249.99 C364.00,241.36 365.04,239.00 368.86,239.00 C370.94,239.00 374.00,241.44 374.00,243.10 C374.00,243.63 376.96,245.44 380.59,247.11 C384.21,248.79 386.96,250.37 386.71,250.63 C386.45,250.88 382.47,249.32 377.87,247.16 C373.27,244.99 368.50,242.92 367.28,242.55 ZM 531.40 523.47 C532.06,526.09 533.42,526.75 534.51,524.98 C534.86,524.42 535.51,524.19 535.96,524.47 C536.40,524.75 537.02,524.02 537.33,522.86 C538.01,520.26 535.56,517.57 533.30,518.44 C532.40,518.78 531.33,518.54 530.93,517.89 C529.60,515.73 527.21,517.65 527.74,520.44 C528.12,522.40 528.55,522.79 529.51,522.00 C530.45,521.21 530.93,521.58 531.40,523.47 ZM 389.27 232.91 C396.78,237.11 397.46,238.24 390.50,234.95 C388.30,233.90 385.37,233.04 384.00,233.03 C382.55,233.01 380.33,231.76 378.72,230.06 L 375.95 227.12 L 379.00 228.00 C380.68,228.48 385.30,230.69 389.27,232.91 ZM 518.47 447.72 C517.64,452.66 517.18,453.95 517.08,451.58 C516.96,448.80 519.11,436.62 519.86,435.81 C520.21,435.43 520.54,437.33 520.60,440.03 C520.65,442.73 520.34,444.71 519.90,444.44 C519.46,444.17 518.82,445.64 518.47,447.72 Z" fill="rgb(34,68,107)"/>
<path d="M 356.46 217.32 C381.53,228.74 462.63,266.88 507.39,288.40 C517.24,293.13 525.65,297.00 526.10,297.00 C526.55,297.00 539.29,291.15 554.42,284.00 C569.56,276.85 582.43,271.00 583.04,271.00 C583.67,271.00 583.87,271.82 583.52,272.95 C583.04,274.45 583.66,275.28 586.20,276.57 C588.01,277.49 590.26,278.91 591.19,279.73 C592.32,280.71 594.41,281.09 597.41,280.85 C600.88,280.57 601.65,280.76 600.72,281.65 C599.60,282.72 554.05,304.83 540.75,310.76 L 535.00 313.33 L 535.00 364.09 L 527.00 376.18 C522.60,382.83 519.00,388.66 519.00,389.14 C519.00,389.61 518.55,390.00 518.00,390.00 C517.35,390.00 517.00,376.55 517.00,351.65 L 517.00 313.30 L 504.25 307.24 C491.12,301.00 435.02,274.39 419.97,267.26 C415.31,265.05 401.88,258.69 390.13,253.12 C378.37,247.55 368.13,243.00 367.37,243.00 C366.21,243.00 366.03,261.56 366.25,363.14 L 366.50 483.28 L 395.00 496.73 L 366.50 483.28 L 366.50 483.28 L 365.90 395.39 C365.20,293.70 365.02,283.81 364.00,289.50 C363.48,292.42 363.22,292.83 363.06,291.00 L 362.83 288.50 L 362.03 291.14 C361.59,292.59 361.49,295.06 361.80,296.64 L 362.37 299.50 L 363.08 297.00 C363.48,295.62 363.81,300.12 363.83,307.00 C363.85,314.83 363.54,318.75 363.00,317.50 C362.22,315.69 362.13,315.67 362.07,317.33 C362.03,318.34 361.44,318.98 360.75,318.75 C360.06,318.51 359.05,318.89 358.50,319.59 C357.95,320.29 356.38,321.00 355.00,321.18 L 352.50 321.50 L 351.78 309.50 C351.37,302.60 351.47,296.03 352.01,294.04 C352.73,291.41 352.60,290.03 351.45,288.29 C350.63,287.03 349.51,286.00 348.98,286.00 C348.35,286.00 348.00,322.90 348.00,389.82 L 348.00 284.93 L 337.46 285.22 L 326.92 285.50 L 326.98 401.47 C327.00,449.31 327.21,490.78 327.48,508.68 C327.21,490.78 327.00,449.31 326.98,401.47 L 326.91 285.50 L 326.92 285.50 L 342.41 284.50 L 342.51 281.50 C342.85,271.37 342.88,271.29 346.08,269.97 C351.34,267.79 352.18,265.43 351.40,255.08 C351.02,250.05 350.32,245.70 349.85,245.41 C348.39,244.51 348.85,226.20 350.40,223.19 C351.67,220.74 352.32,220.48 356.95,220.57 C360.18,220.63 361.61,220.35 360.79,219.80 C359.85,219.16 358.21,218.24 356.46,217.32 ZM 671.00 577.00 C671.00,576.35 655.81,576.00 627.44,576.00 C598.66,576.00 584.09,575.66 584.50,575.00 C584.86,574.41 583.76,574.00 581.81,574.00 C578.35,574.00 567.87,567.69 565.35,564.09 C564.64,563.07 562.18,561.49 559.88,560.57 C557.59,559.65 554.44,557.54 552.88,555.87 C551.33,554.21 549.64,553.10 549.14,553.41 C548.64,553.72 548.02,553.20 547.77,552.24 C547.41,550.84 547.98,550.50 550.66,550.50 C552.50,550.50 554.00,550.84 554.00,551.25 C554.00,552.34 560.78,552.17 561.46,551.06 C562.61,549.20 566.18,550.50 568.74,553.72 C570.74,556.22 572.13,557.00 574.62,557.00 C576.41,557.00 578.16,557.45 578.50,558.00 C580.15,560.67 593.00,557.24 593.00,554.13 C593.00,553.02 600.78,551.00 605.04,551.00 C606.77,551.00 609.37,550.07 610.83,548.92 L 613.47 546.84 L 610.48 547.53 C608.84,547.91 605.03,548.91 602.00,549.76 C595.78,551.51 588.95,553.08 584.82,553.79 C586.91,553.35 589.91,552.62 594.00,551.57 C600.88,549.79 633.16,541.62 665.74,533.42 L 724.98 518.50 L 725.02 483.00 C725.06,448.40 725.84,413.92 726.62,413.08 C726.83,412.85 727.08,419.38 727.17,427.58 C727.29,438.59 727.51,440.93 728.00,436.50 L 728.66 430.50 L 728.83 436.25 C728.98,441.26 729.26,442.00 730.98,442.00 C732.33,442.00 733.15,442.88 733.56,444.75 C733.90,446.26 734.43,448.17 734.76,449.00 C735.08,449.83 735.47,451.56 735.62,452.87 C735.96,455.80 736.53,456.40 738.30,455.71 C739.91,455.10 740.88,444.99 741.87,418.50 L 742.50 401.50 L 743.13 430.50 C744.05,472.59 743.61,530.79 742.37,532.03 C741.81,532.59 718.55,538.78 690.69,545.78 L 640.04 558.50 L 690.77 559.14 C718.67,559.50 741.84,559.59 742.25,559.34 C742.66,559.09 743.00,563.18 743.00,568.44 L 743.00 578.00 L 526.17 578.00 C519.13,578.00 512.17,578.00 505.30,578.00 C590.44,577.89 671.00,577.53 671.00,577.00 ZM 541.55 513.57 C542.17,511.03 542.51,508.94 542.20,508.88 C541.81,508.82 540.75,508.84 539.83,508.93 C538.91,509.02 536.56,507.49 534.59,505.53 L 531.02 501.96 L 533.07 496.73 C535.61,490.24 541.01,474.69 540.97,474.01 C540.80,471.26 533.14,492.24 527.51,510.86 C526.96,512.67 526.45,514.38 525.97,516.02 C531.07,498.15 537.55,479.37 542.97,467.41 C544.69,463.61 546.07,460.38 546.03,460.24 C545.64,458.84 567.23,418.70 575.35,405.72 C585.63,389.28 603.93,364.02 610.73,356.86 L 614.19 353.22 L 617.10 356.26 C618.69,357.93 620.00,359.83 620.00,360.49 C620.00,361.14 621.12,362.19 622.50,362.82 C623.88,363.44 625.00,364.42 625.00,364.98 C625.00,365.54 625.90,366.00 627.00,366.00 C629.35,366.00 629.64,368.23 627.52,369.98 C626.40,370.91 625.27,370.94 622.87,370.11 C621.13,369.50 617.63,368.98 615.10,368.96 C612.57,368.95 609.38,368.29 608.00,367.50 L 607.98 367.49 C606.48,366.63 605.63,366.14 604.87,366.26 C603.88,366.40 603.03,367.55 601.09,370.19 C598.81,373.30 598.33,374.59 599.25,375.18 C601.23,376.44 607.78,376.13 608.31,374.75 C608.64,373.91 609.32,374.21 610.41,375.68 C611.30,376.89 613.23,378.01 614.70,378.18 C616.77,378.43 617.57,379.23 618.20,381.69 C618.66,383.44 620.18,385.78 621.60,386.90 L 624.17 388.92 L 618.67 392.43 C615.65,394.37 611.56,396.72 609.59,397.66 C598.13,403.13 616.70,400.43 631.39,394.50 C634.70,393.16 637.51,392.17 637.63,392.30 C638.12,392.79 628.15,415.91 624.06,423.76 C617.80,435.80 614.71,439.58 607.21,444.42 C599.80,449.20 583.14,457.71 575.75,460.49 C573.14,461.47 571.00,462.72 571.00,463.27 C571.00,464.57 585.40,463.44 593.50,461.50 L 593.95 461.40 C598.16,460.39 600.02,459.95 600.30,460.43 C600.52,460.81 599.75,461.78 598.37,463.51 L 598.19 463.75 C589.95,474.10 568.03,493.53 562.00,495.82 C561.17,496.13 559.88,497.00 559.13,497.74 C558.38,498.49 556.46,499.36 554.88,499.67 C553.30,499.99 552.00,500.58 552.00,500.97 C552.00,501.37 550.20,502.51 548.00,503.50 C544.33,505.15 543.83,505.87 542.03,511.90 C541.87,512.44 541.71,513.00 541.55,513.57 ZM 584.50 551.83 C586.08,550.99 588.08,549.98 590.25,548.96 C601.93,543.43 603.32,542.21 597.62,542.45 C594.80,542.58 592.65,543.35 591.25,544.75 C586.69,549.31 584.97,549.82 577.13,548.93 C573.08,548.47 569.65,547.96 569.52,547.80 C569.39,547.63 569.00,546.34 568.66,544.91 C567.82,541.38 569.91,538.86 574.07,538.41 C580.17,537.74 581.64,537.09 582.81,534.52 C583.44,533.14 583.79,532.00 583.59,532.00 C583.12,532.00 562.34,541.80 546.99,549.25 C546.20,549.64 545.45,550.00 544.76,550.34 C540.81,552.28 538.33,553.50 536.87,553.52 C538.81,553.02 542.65,551.33 549.50,548.02 C557.20,544.30 572.28,537.09 583.00,531.99 C593.72,526.89 606.55,520.76 611.50,518.38 C616.45,516.00 635.12,507.13 653.00,498.68 L 685.50 483.32 L 686.01 403.91 C686.24,367.74 686.51,344.02 686.67,344.02 C686.71,344.02 686.74,345.05 686.76,347.19 C686.91,360.97 687.39,370.12 688.00,370.50 C688.55,370.84 689.00,372.02 689.00,373.12 C689.00,374.22 688.55,374.84 688.00,374.50 C687.45,374.16 687.00,374.84 687.00,376.00 C687.00,377.16 687.45,377.84 688.00,377.50 C688.62,377.12 689.00,378.97 689.00,382.37 C689.00,386.93 689.33,387.97 690.94,388.48 C692.34,388.93 693.20,390.67 694.06,394.80 C695.37,401.13 698.06,408.00 699.24,408.00 C699.66,408.00 700.07,406.31 700.16,404.25 L 700.32 400.50 L 700.91 404.00 C701.23,405.92 701.74,397.38 702.03,385.00 C702.34,371.68 702.65,389.52 702.78,428.74 L 703.00 494.98 L 693.75 499.63 C688.66,502.19 677.08,507.76 668.00,512.02 C643.37,523.57 597.30,545.56 584.50,551.83 ZM 523.49 484.74 C525.68,479.11 527.48,474.27 527.50,474.00 C527.52,473.73 527.89,472.94 528.32,472.25 C529.68,470.12 528.02,470.87 525.59,473.50 C522.41,476.93 520.25,476.68 519.12,472.75 C518.60,470.96 518.05,470.17 517.90,471.00 C517.75,471.83 517.32,468.67 516.94,464.00 C516.79,462.09 516.68,461.16 516.60,461.20 C516.70,457.78 516.86,454.44 517.07,451.39 C517.08,451.46 517.08,451.52 517.08,451.58 C517.18,453.95 517.64,452.66 518.47,447.72 C518.82,445.64 519.46,444.17 519.90,444.44 C520.34,444.71 520.65,442.73 520.60,440.03 C520.54,437.33 520.21,435.43 519.86,435.81 C519.28,436.44 517.86,443.92 517.30,448.54 C517.58,445.35 517.94,442.58 518.38,440.50 C524.45,411.34 539.65,383.61 562.37,360.25 C565.71,356.81 568.79,354.00 569.22,354.00 C569.65,354.00 570.00,358.95 570.00,365.00 C570.00,371.67 570.39,376.00 571.00,376.00 C571.55,376.00 572.00,375.12 572.00,374.05 C572.00,371.17 576.79,356.46 580.16,349.00 C583.07,342.56 587.64,336.82 591.50,334.77 C593.44,333.74 593.45,333.77 591.70,335.74 C590.10,337.54 590.07,337.93 591.40,339.26 C592.23,340.09 592.63,341.04 592.29,341.38 C591.95,341.72 592.49,342.00 593.49,342.00 C594.49,342.00 597.04,343.77 599.16,345.92 C602.54,349.38 609.11,352.79 611.25,352.20 C613.31,351.64 611.32,354.31 604.63,361.06 C582.08,383.84 558.71,414.44 545.49,438.50 C543.37,442.35 540.60,446.77 539.32,448.33 C538.04,449.88 537.00,451.76 537.00,452.50 C537.00,453.24 535.30,457.37 533.23,461.68 C531.16,465.98 527.22,475.23 524.48,482.24 C524.10,483.21 523.73,484.15 523.36,485.06 C523.40,484.96 523.44,484.85 523.49,484.74 ZM 367.28 242.55 C368.50,242.92 373.27,244.99 377.87,247.16 C382.47,249.32 386.45,250.88 386.71,250.63 C386.96,250.37 384.21,248.79 380.59,247.11 C376.96,245.44 374.00,243.63 374.00,243.10 C374.00,241.44 370.94,239.00 368.86,239.00 C365.04,239.00 364.00,241.36 364.00,249.99 C364.00,255.15 363.64,257.89 363.00,257.50 C362.44,257.16 362.01,257.90 362.02,259.19 C362.03,261.05 362.22,261.21 363.00,260.00 C363.74,258.86 364.02,259.33 364.20,262.00 C364.33,263.92 364.57,260.19 364.75,253.69 C365.06,242.03 365.09,241.89 367.28,242.55 ZM 531.40 523.47 C530.93,521.58 530.45,521.21 529.51,522.00 C528.55,522.79 528.12,522.40 527.74,520.44 C527.21,517.65 529.60,515.73 530.93,517.89 C531.33,518.54 532.40,518.78 533.30,518.44 C535.56,517.57 538.01,520.26 537.33,522.86 C537.02,524.02 536.40,524.75 535.96,524.47 C535.51,524.19 534.86,524.42 534.51,524.98 C533.42,526.75 532.06,526.09 531.40,523.47 ZM 640.74 376.75 C637.05,380.58 634.94,381.00 635.73,377.75 C636.45,374.80 638.53,372.48 642.59,370.08 L 645.90 368.12 L 644.89 370.81 C644.33,372.29 642.47,374.96 640.74,376.75 ZM 591.45 370.36 C592.51,370.76 599.00,365.21 599.00,363.91 C599.00,362.71 595.95,361.98 593.52,362.58 C591.78,363.02 591.10,364.02 590.80,366.57 C590.58,368.44 590.88,370.15 591.45,370.36 ZM 389.27 232.91 C385.30,230.69 380.68,228.48 379.00,228.00 L 375.95 227.12 L 378.72 230.06 C380.33,231.76 382.55,233.01 384.00,233.03 C385.37,233.04 388.30,233.90 390.50,234.95 C397.46,238.24 396.78,237.11 389.27,232.91 ZM 612.08 323.65 C610.66,323.98 607.14,325.58 604.25,327.20 C597.21,331.15 597.55,330.17 604.75,325.77 C613.83,320.23 614.67,319.88 614.67,321.58 C614.67,322.38 613.50,323.32 612.08,323.65 ZM 537.06 533.95 C538.66,522.06 538.61,522.59 539.27,521.00 C539.73,519.90 540.22,518.41 540.68,516.84 C539.33,522.15 538.05,528.25 537.06,533.95 ZM 516.51 465.43 C516.52,467.12 516.56,469.31 516.62,472.00 C516.97,488.01 517.60,494.75 518.79,494.99 C517.09,494.86 516.28,480.10 516.51,465.43 ZM 349.00 523.85 C337.73,521.02 328.17,518.42 327.77,518.07 C327.77,518.07 327.77,518.07 327.77,518.07 C327.77,518.07 327.77,518.07 327.77,518.07 C328.08,518.34 340.78,521.71 358.30,526.20 C354.47,525.23 351.30,524.43 349.00,523.85 ZM 516.96 554.52 L 516.91 554.73 L 504.75 548.79 C511.14,551.91 516.42,554.39 516.96,554.52 ZM 348.51 216.38 C348.62,214.85 348.74,214.00 348.87,214.00 C348.89,214.00 348.92,214.01 348.97,214.02 C348.79,214.17 348.64,214.96 348.51,216.38 ZM 520.91 535.52 C520.43,537.64 519.94,539.88 519.44,542.30 L 519.52 541.89 C519.94,539.85 520.40,537.72 520.91,535.52 Z" fill="rgb(45,118,133)"/>
<path d="M 743.36 442.79 C743.29,438.59 743.22,434.47 743.13,430.50 L 742.50 401.50 L 741.87 418.50 C740.88,444.99 739.91,455.10 738.30,455.71 C736.53,456.40 735.96,455.80 735.62,452.87 C735.47,451.56 735.08,449.83 734.76,449.00 C734.43,448.17 733.90,446.26 733.56,444.75 C733.15,442.88 732.33,442.00 730.98,442.00 C729.26,442.00 728.98,441.26 728.83,436.25 L 728.66 430.50 L 728.00 436.50 C727.51,440.93 727.29,438.59 727.17,427.58 C727.08,419.38 726.83,412.85 726.62,413.08 C726.13,413.61 725.63,427.66 725.33,446.68 C725.36,421.63 725.32,389.46 725.23,361.75 L 724.95 285.00 L 704.00 285.00 L 704.00 494.91 L 699.75 496.85 C698.79,497.29 695.92,498.65 691.88,500.56 C692.57,500.22 693.20,499.91 693.75,499.63 L 703.00 494.98 L 702.78 428.74 C702.65,389.52 702.34,371.68 702.03,385.00 C701.74,397.38 701.23,405.92 700.91,404.00 L 700.32 400.50 L 700.16 404.25 C700.07,406.31 699.66,408.00 699.24,408.00 C698.06,408.00 695.37,401.13 694.06,394.80 C693.20,390.67 692.34,388.93 690.94,388.48 C689.33,387.97 689.00,386.93 689.00,382.37 C689.00,378.97 688.62,377.12 688.00,377.50 C687.45,377.84 687.00,377.16 687.00,376.00 C687.00,374.84 687.45,374.16 688.00,374.50 C688.55,374.84 689.00,374.22 689.00,373.12 C689.00,372.02 688.55,370.84 688.00,370.50 C687.39,370.12 686.91,360.97 686.76,347.19 C686.74,345.05 686.71,344.02 686.67,344.02 C686.51,344.02 686.24,367.74 686.01,403.91 L 685.50 483.32 L 653.82 498.29 C670.31,490.47 683.15,484.25 683.75,483.77 C684.74,482.97 685.00,457.49 685.00,362.46 L 685.00 242.16 L 660.75 253.67 C647.41,260.01 629.53,268.47 621.00,272.48 C613.81,275.87 598.30,283.27 583.88,290.20 C593.19,285.64 600.28,282.07 600.72,281.65 C601.65,280.76 600.88,280.57 597.41,280.85 C594.41,281.09 592.32,280.71 591.19,279.73 C590.26,278.91 588.01,277.49 586.20,276.57 C583.66,275.28 583.04,274.45 583.52,272.95 C583.87,271.82 583.67,271.00 583.04,271.00 C582.55,271.00 574.29,274.71 563.30,279.84 C573.00,275.23 580.95,271.39 581.50,270.96 C582.48,270.19 616.14,254.13 673.00,227.29 C688.67,219.89 702.06,213.60 702.75,213.31 C703.73,212.90 704.00,218.59 704.00,239.89 L 704.00 267.00 L 743.00 267.00 L 743.21 352.25 C743.30,388.86 743.35,418.71 743.36,442.79 ZM 870.20 738.88 C853.98,742.32 837.73,737.75 827.43,726.86 C820.29,719.31 818.49,714.07 818.54,701.00 C818.58,692.40 818.98,689.64 820.76,685.74 C823.80,679.10 831.37,671.37 838.48,667.65 C844.26,664.63 844.98,664.50 856.50,664.50 C867.38,664.50 869.03,664.75 874.12,667.14 C886.24,672.82 894.11,684.18 894.83,697.05 C894.87,697.75 894.92,698.41 894.96,699.02 C895.17,702.04 895.30,704.05 894.42,705.39 C892.67,708.04 886.89,708.03 869.62,708.01 C867.85,708.00 865.96,708.00 863.94,708.00 L 834.96 708.00 L 836.89 711.75 C839.40,716.62 844.54,721.50 849.22,723.45 C851.37,724.35 855.87,725.00 859.90,725.00 C865.91,725.00 867.77,724.52 873.60,721.49 C877.48,719.46 881.09,718.21 882.12,718.54 C884.53,719.30 889.00,724.73 889.00,726.89 C889.00,730.86 879.53,736.90 870.20,738.88 ZM 624.16 388.92 L 621.60 386.90 C620.18,385.78 618.66,383.44 618.20,381.69 C617.57,379.23 616.77,378.43 614.70,378.18 C613.23,378.01 611.30,376.89 610.41,375.68 C609.32,374.21 608.64,373.91 608.31,374.75 C607.78,376.13 601.23,376.44 599.25,375.18 C598.33,374.59 598.81,373.30 601.09,370.19 C603.03,367.55 603.88,366.40 604.87,366.26 C605.63,366.14 606.48,366.63 607.98,367.49 L 608.00 367.50 C609.38,368.29 612.57,368.95 615.10,368.96 C617.63,368.98 621.13,369.50 622.87,370.11 C625.27,370.94 626.40,370.91 627.52,369.98 C629.64,368.23 629.35,366.00 627.00,366.00 C625.90,366.00 625.00,365.54 625.00,364.98 C625.00,364.42 623.88,363.44 622.50,362.82 C621.12,362.19 620.00,361.14 620.00,360.49 C620.00,359.83 618.69,357.93 617.10,356.26 L 614.19 353.22 L 610.73 356.86 C603.93,364.02 585.63,389.28 575.35,405.72 C570.88,412.86 562.35,428.20 555.63,440.81 C568.92,414.54 585.45,388.29 601.69,367.67 C605.64,362.65 608.70,358.36 608.48,358.15 C608.09,357.76 605.01,360.62 600.66,365.14 C601.99,363.76 603.31,362.40 604.63,361.06 C611.32,354.31 613.31,351.64 611.25,352.20 C609.11,352.79 602.54,349.38 599.16,345.92 C597.04,343.77 594.49,342.00 593.49,342.00 C592.49,342.00 591.95,341.72 592.29,341.38 C592.63,341.04 592.23,340.09 591.40,339.26 C590.07,337.93 590.10,337.54 591.70,335.74 C593.45,333.77 593.44,333.74 591.50,334.77 C591.04,335.02 590.57,335.32 590.09,335.66 C593.12,332.94 596.81,330.28 601.50,327.22 C616.70,317.28 652.57,300.00 658.00,300.00 C661.21,300.00 650.58,358.12 645.10,370.51 C644.93,370.89 644.72,371.30 644.46,371.73 C644.64,371.39 644.79,371.08 644.89,370.81 L 645.90 368.12 L 642.59 370.08 C638.53,372.48 636.45,374.80 635.73,377.75 C635.24,379.77 635.87,380.37 637.31,379.61 C633.99,382.22 629.05,385.69 624.16,388.92 ZM 720.78 736.44 C718.89,737.77 714.08,738.00 688.43,738.00 C659.07,738.00 658.26,737.95 656.40,735.89 C654.59,733.88 654.50,731.65 654.55,687.27 L 654.60 640.74 L 656.91 638.87 C659.77,636.56 666.68,636.39 669.78,638.56 L 672.00 640.11 L 672.00 721.68 L 696.25 722.35 C715.16,722.88 720.71,722.96 722.33,725.53 C723.00,726.59 723.00,728.09 723.00,730.22 C723.00,730.35 723.00,730.49 723.00,730.63 C723.00,733.89 722.48,735.25 720.78,736.44 ZM 810.32 737.25 C806.76,739.32 795.33,740.40 790.50,739.13 C783.49,737.27 778.87,733.58 775.37,727.00 C773.74,723.95 773.46,720.67 773.18,701.25 L 772.86 679.00 L 767.99 679.00 C762.56,679.00 760.00,676.76 760.00,672.00 C760.00,667.22 762.55,665.00 768.06,665.00 L 773.00 665.00 L 773.00 656.06 C773.00,647.95 773.21,646.97 775.22,645.56 C778.16,643.50 786.36,643.51 788.43,645.57 C789.62,646.77 790.00,649.29 790.00,656.07 L 790.00 665.00 L 799.46 665.00 C807.80,665.00 809.05,665.23 809.96,666.93 C811.47,669.75 811.23,674.22 809.44,676.78 C808.03,678.79 807.05,679.00 798.94,679.00 L 790.00 679.00 L 790.00 696.98 C790.00,722.80 791.75,726.04 804.88,724.51 C810.84,723.82 810.86,723.83 812.49,726.98 C814.85,731.55 814.11,735.05 810.32,737.25 ZM 747.60 738.23 C747.00,738.64 744.36,738.98 741.75,738.98 C738.32,739.00 736.44,738.44 735.00,737.00 C733.08,735.08 733.00,733.67 733.00,701.69 C733.00,675.30 733.28,668.00 734.35,666.54 C735.29,665.25 737.39,664.55 741.24,664.23 C745.91,663.84 747.10,664.10 748.89,665.89 C750.95,667.95 751.00,668.75 751.00,700.57 C751.00,732.77 750.69,736.17 747.60,738.23 ZM 836.00 693.95 C836.00,695.95 836.50,696.00 857.00,696.00 C870.77,696.00 878.00,695.64 878.00,694.97 C878.00,692.91 874.85,686.47 872.70,684.13 C867.48,678.45 856.00,676.30 848.22,679.55 C841.81,682.23 836.00,689.08 836.00,693.95 ZM 749.31 649.59 C747.29,651.46 745.60,652.00 741.78,652.00 C737.61,652.00 736.37,651.53 733.80,648.95 C731.05,646.20 730.80,645.45 731.28,641.24 C732.00,634.82 735.30,632.00 742.10,632.00 C746.04,632.00 747.60,632.51 749.50,634.41 C754.07,638.98 753.99,645.25 749.31,649.59 ZM 591.45 370.36 C590.88,370.15 590.58,368.44 590.80,366.57 C591.10,364.02 591.78,363.02 593.52,362.58 C595.95,361.98 599.00,362.71 599.00,363.91 C599.00,365.21 592.51,370.76 591.45,370.36 ZM 612.08 323.65 C613.50,323.32 614.67,322.38 614.67,321.58 C614.67,319.88 613.83,320.23 604.75,325.77 C597.55,330.17 597.21,331.15 604.25,327.20 C607.14,325.58 610.66,323.98 612.08,323.65 ZM 580.34 348.62 C580.28,348.74 580.22,348.87 580.16,349.00 C576.79,356.46 572.00,371.17 572.00,374.05 C572.00,375.12 571.55,376.00 571.00,376.00 C570.39,376.00 570.00,371.67 570.00,365.00 C570.00,358.95 569.65,354.00 569.22,354.00 C569.65,354.00 570.00,358.27 570.00,363.50 C570.00,368.73 570.40,373.00 570.88,373.00 C571.37,373.00 572.99,369.06 574.49,364.25 C576.50,357.78 578.30,352.77 580.34,348.62 ZM 565.81 407.02 C558.17,417.92 549.32,431.53 545.49,438.50 C550.84,428.76 557.86,417.95 565.81,407.02 ZM 584.50 551.83 C595.01,546.68 627.97,530.93 653.06,519.06 C639.71,525.43 623.98,532.91 612.25,538.49 C595.15,546.61 581.15,553.59 581.00,554.07 C581.00,554.07 581.00,554.06 581.00,554.06 C581.00,553.83 582.37,552.97 584.50,551.83 ZM 620.45 544.85 C632.71,541.73 649.12,537.59 666.22,533.28 L 724.94 518.50 L 724.99 511.51 L 724.98 518.50 L 665.74 533.42 C649.54,537.50 633.42,541.57 620.45,544.85 ZM 606.04 400.22 C605.87,399.77 606.91,398.94 609.59,397.66 C609.66,397.63 609.73,397.59 609.81,397.55 C607.81,398.70 606.30,399.76 606.04,400.22 ZM 611.50 518.38 C610.26,518.98 608.52,519.81 606.45,520.80 C609.86,519.11 627.00,510.96 646.00,501.99 C630.49,509.33 615.80,516.31 611.50,518.38 ZM 742.30 532.10 C741.77,532.63 718.62,538.76 690.81,545.75 C718.17,538.87 741.06,532.79 742.33,532.06 C742.32,532.08 742.31,532.09 742.30,532.10 ZM 516.96 554.52 C516.92,554.51 516.85,554.49 516.76,554.46 C516.92,554.11 517.70,550.64 518.68,545.98 C518.47,546.99 518.26,548.03 518.04,549.12 ZM 614.28 399.71 C619.52,398.54 626.26,396.57 631.39,394.50 C625.60,396.84 619.20,398.68 614.28,399.71 ZM 618.28 392.68 C618.41,392.60 618.54,392.52 618.67,392.43 L 623.83 389.13 C621.93,390.38 620.05,391.58 618.28,392.68 ZM 541.42 310.46 C541.16,310.58 540.93,310.69 540.75,310.77 L 535.00 313.33 L 540.75 310.76 C540.97,310.67 541.19,310.57 541.42,310.46 Z" fill="rgb(63,157,158)"/>
<path d="M 0.00 512.00 L 0.00 0.00 L 512.00 0.00 L 1024.00 0.00 L 1024.00 512.00 L 1024.00 1024.00 L 512.00 1024.00 L 0.00 1024.00 L 0.00 512.00 ZM 462.43 765.50 C470.43,763.80 478.99,759.01 482.71,754.13 C484.12,752.28 486.22,748.45 487.37,745.63 C489.34,740.81 489.49,738.30 489.80,704.18 C490.05,677.15 489.83,667.50 488.95,666.43 C488.16,665.49 485.77,665.00 481.93,665.00 C477.05,665.00 475.86,665.36 474.56,667.22 C473.70,668.44 473.00,670.21 473.00,671.15 C473.00,672.54 472.05,672.22 467.93,669.45 C461.16,664.89 456.17,663.70 446.00,664.20 C434.90,664.75 427.02,668.17 420.18,675.40 C413.25,682.73 410.72,689.91 411.18,701.00 C411.80,716.05 417.92,725.13 431.97,731.85 C438.75,735.10 440.22,735.43 447.97,735.41 C455.16,735.39 457.48,734.94 462.74,732.56 C466.17,731.01 469.48,729.12 470.11,728.37 C471.97,726.13 473.00,726.80 472.99,730.25 C472.98,739.23 468.36,747.07 461.21,750.23 C457.49,751.88 455.11,752.16 447.60,751.83 C439.95,751.49 437.41,750.91 431.64,748.21 C427.86,746.45 424.00,745.00 423.04,745.00 C420.81,745.00 418.32,747.78 416.89,751.87 C415.90,754.74 416.03,755.40 418.00,757.50 C420.52,760.18 431.98,764.67 439.52,765.93 C447.32,767.24 454.90,767.09 462.43,765.50 ZM 288.27 737.08 C300.30,732.42 302.93,727.23 296.45,720.95 L 292.91 717.52 L 289.70 719.41 C281.41,724.33 278.47,725.29 271.73,725.29 C262.51,725.29 254.87,721.50 250.25,714.61 C248.46,711.95 247.00,709.37 247.00,708.89 C247.00,708.39 259.78,708.00 275.96,708.00 C308.79,708.00 307.00,708.48 307.00,699.65 C307.00,689.35 300.35,676.28 292.28,670.70 C284.58,665.38 281.35,664.55 268.50,664.53 C257.27,664.51 256.12,664.70 250.56,667.42 C228.27,678.32 222.43,706.95 238.49,726.55 C242.08,730.93 252.88,737.27 259.63,738.94 C266.31,740.61 281.76,739.60 288.27,737.08 ZM 365.67 738.51 C368.43,737.69 372.76,735.44 375.29,733.51 C377.81,731.58 380.12,730.00 380.42,730.00 C380.71,730.00 380.69,731.29 380.38,732.87 C379.63,736.62 382.84,739.00 388.65,739.00 C396.41,739.00 396.00,741.95 396.00,686.26 C396.00,629.71 396.51,633.00 387.78,633.00 C378.77,633.00 379.00,632.47 379.00,653.54 C379.00,663.69 378.77,672.00 378.49,672.00 C378.21,672.00 376.21,670.71 374.04,669.14 C368.33,665.01 362.49,663.68 352.27,664.20 C341.31,664.75 334.31,667.83 327.55,675.05 C320.01,683.11 318.50,687.43 318.50,701.00 C318.50,715.16 320.17,720.18 327.42,727.85 C337.53,738.54 351.99,742.57 365.67,738.51 ZM 563.00 737.46 C574.45,732.83 578.12,728.28 574.38,723.34 C573.35,721.97 571.36,720.16 569.97,719.33 C567.60,717.90 567.14,717.99 562.47,720.85 C549.09,729.03 531.90,725.75 525.02,713.70 L 522.04 708.50 L 551.26 708.00 L 580.47 707.50 L 581.77 704.81 C582.77,702.71 582.82,700.62 581.98,695.40 C579.62,680.61 570.80,669.82 557.86,665.89 C547.84,662.85 535.00,663.48 526.22,667.46 C518.08,671.14 510.04,679.61 506.99,687.72 C504.12,695.35 504.48,709.98 507.72,717.18 C511.95,726.58 521.17,734.29 532.80,738.13 C540.16,740.57 556.19,740.21 563.00,737.46 ZM 810.32 737.25 C814.11,735.05 814.85,731.55 812.49,726.98 C810.86,723.83 810.84,723.82 804.88,724.51 C791.75,726.04 790.00,722.80 790.00,696.98 L 790.00 679.00 L 798.94 679.00 C807.05,679.00 808.03,678.79 809.44,676.78 C811.23,674.22 811.47,669.75 809.96,666.93 C809.05,665.23 807.80,665.00 799.46,665.00 L 790.00 665.00 L 790.00 656.07 C790.00,649.29 789.62,646.77 788.43,645.57 C786.36,643.51 778.16,643.50 775.22,645.56 C773.21,646.97 773.00,647.95 773.00,656.06 L 773.00 665.00 L 768.06 665.00 C762.55,665.00 760.00,667.22 760.00,672.00 C760.00,676.76 762.56,679.00 767.99,679.00 L 772.86 679.00 L 773.18 701.25 C773.46,720.67 773.74,723.95 775.37,727.00 C778.87,733.58 783.49,737.27 790.50,739.13 C795.33,740.40 806.76,739.32 810.32,737.25 ZM 870.20 738.88 C879.53,736.90 889.00,730.86 889.00,726.89 C889.00,724.73 884.53,719.30 882.12,718.54 C881.09,718.21 877.48,719.46 873.60,721.49 C867.77,724.52 865.91,725.00 859.90,725.00 C855.87,725.00 851.37,724.35 849.22,723.45 C844.54,721.50 839.40,716.62 836.89,711.75 L 834.96 708.00 L 863.94 708.00 C897.59,708.00 895.49,708.74 894.83,697.05 C894.11,684.18 886.24,672.82 874.12,667.14 C869.03,664.75 867.38,664.50 856.50,664.50 C844.98,664.50 844.26,664.63 838.48,667.65 C831.37,671.37 823.80,679.10 820.76,685.74 C818.98,689.64 818.58,692.40 818.54,701.00 C818.49,714.07 820.29,719.31 827.43,726.86 C837.73,737.75 853.98,742.32 870.20,738.88 ZM 613.69 736.00 C614.55,734.27 614.92,727.80 614.88,714.93 C614.82,695.05 615.52,691.33 620.30,686.13 C623.39,682.76 629.77,680.05 634.63,680.02 C640.15,679.99 641.16,678.49 640.80,670.84 L 640.50 664.50 L 636.19 664.19 C630.12,663.75 622.55,666.56 617.93,670.95 C614.27,674.44 614.00,674.54 614.00,672.41 C614.00,671.16 613.56,668.98 613.02,667.57 C612.12,665.18 611.59,665.00 605.72,665.00 C602.14,665.00 598.88,665.52 598.20,666.20 C597.31,667.09 597.00,676.24 597.00,701.20 C597.00,733.93 597.06,735.06 599.05,737.05 C600.72,738.72 602.13,739.04 606.77,738.80 C611.68,738.54 612.62,738.16 613.69,736.00 ZM 747.60 738.23 C750.69,736.17 751.00,732.77 751.00,700.57 C751.00,668.75 750.95,667.95 748.89,665.89 C747.10,664.10 745.91,663.84 741.24,664.23 C737.39,664.55 735.29,665.25 734.35,666.54 C733.28,668.00 733.00,675.30 733.00,701.69 C733.00,733.67 733.08,735.08 735.00,737.00 C736.44,738.44 738.32,739.00 741.75,738.98 C744.36,738.98 747.00,738.64 747.60,738.23 ZM 222.17 736.35 C224.30,734.41 224.73,726.13 222.80,724.20 C221.93,723.33 214.98,723.00 197.80,723.00 L 174.00 723.00 L 174.00 682.19 C174.00,642.50 173.94,641.32 171.96,639.19 C169.21,636.24 162.31,636.18 158.63,639.07 L 156.00 641.15 L 156.00 687.26 C156.00,733.23 156.01,733.38 158.17,735.69 L 160.35 738.00 L 190.35 738.00 C216.85,738.00 220.56,737.81 222.17,736.35 ZM 720.78 736.44 C722.48,735.25 723.00,733.89 723.00,730.63 C723.00,722.95 723.51,723.11 696.25,722.35 L 672.00 721.68 L 672.00 680.90 L 672.00 640.11 L 669.78 638.56 C666.68,636.39 659.77,636.56 656.91,638.87 L 654.60 640.74 L 654.55 687.27 C654.50,731.65 654.59,733.88 656.40,735.89 C658.26,737.95 659.07,738.00 688.43,738.00 C714.08,738.00 718.89,737.77 720.78,736.44 ZM 749.31 649.59 C753.99,645.25 754.07,638.98 749.50,634.41 C747.60,632.51 746.04,632.00 742.10,632.00 C735.30,632.00 732.00,634.82 731.28,641.24 C730.80,645.45 731.05,646.20 733.80,648.95 C736.37,651.53 737.61,652.00 741.78,652.00 C745.60,652.00 747.29,651.46 749.31,649.59 ZM 743.00 568.44 C743.00,563.18 742.66,559.09 742.25,559.34 C741.84,559.59 718.67,559.50 690.77,559.14 L 640.04 558.50 L 690.69 545.78 C718.55,538.78 741.77,532.63 742.30,532.10 C743.33,531.07 743.55,488.69 743.21,352.25 L 743.00 267.00 L 723.50 267.00 L 704.00 267.00 L 704.00 239.89 C704.00,218.59 703.73,212.90 702.75,213.31 C702.06,213.60 688.67,219.89 673.00,227.29 C616.14,254.13 582.48,270.19 581.50,270.96 C580.04,272.10 527.07,297.00 526.10,297.00 C525.66,297.00 517.24,293.13 507.39,288.40 C454.31,262.88 350.16,214.00 348.87,214.00 C348.39,214.00 348.00,225.93 348.00,240.50 L 348.00 267.00 L 328.00 267.00 L 307.99 267.00 L 308.25 399.67 L 308.50 532.33 L 360.16 545.41 C388.57,552.61 411.67,558.72 411.50,559.00 C411.33,559.27 387.97,559.48 359.60,559.46 L 308.00 559.42 L 308.00 568.04 C308.00,572.79 308.30,576.97 308.67,577.33 C309.03,577.70 406.91,578.00 526.17,578.00 L 743.00 578.00 L 743.00 568.44 ZM 441.02 718.98 C435.35,716.34 433.27,714.44 430.87,709.75 C425.17,698.58 428.79,686.27 439.38,680.77 C445.25,677.73 455.94,677.72 461.69,680.76 C469.59,684.94 473.98,693.98 472.60,703.20 C471.73,709.00 468.72,713.54 463.19,717.43 C457.46,721.46 447.80,722.13 441.02,718.98 ZM 247.43 693.25 C248.49,688.77 253.22,682.83 257.50,680.59 C260.53,679.01 263.34,678.50 269.07,678.50 C275.62,678.50 277.20,678.87 280.70,681.18 C284.98,684.01 288.39,688.67 289.53,693.25 L 290.22 696.00 L 268.50 696.00 L 246.78 696.00 L 247.43 693.25 ZM 347.01 722.29 C338.26,717.69 334.30,709.80 335.28,698.91 C336.45,685.86 344.08,678.72 357.00,678.58 C369.88,678.44 377.90,686.43 378.75,700.26 C379.15,706.76 378.90,708.05 376.35,712.86 C372.28,720.53 366.71,724.30 358.71,724.79 C353.37,725.12 351.73,724.77 347.01,722.29 ZM 522.00 694.96 C522.00,692.93 525.86,686.46 528.66,683.80 C539.20,673.80 559.08,677.47 563.94,690.32 C566.16,696.21 566.90,696.00 543.50,696.00 C529.28,696.00 522.00,695.65 522.00,694.96 ZM 836.00 693.95 C836.00,689.08 841.81,682.23 848.22,679.55 C856.00,676.30 867.48,678.45 872.70,684.13 C874.85,686.47 878.00,692.91 878.00,694.97 C878.00,695.64 870.77,696.00 857.00,696.00 C836.50,696.00 836.00,695.95 836.00,693.95 ZM 446.00 548.50 C432.52,545.02 400.58,536.89 375.00,530.44 C349.42,523.98 328.17,518.42 327.77,518.07 C327.37,517.72 327.01,465.25 326.98,401.47 L 326.92 285.50 L 337.46 285.22 L 348.00 284.93 L 348.00 389.82 L 348.00 494.71 L 410.75 524.50 C445.26,540.89 473.69,554.45 473.92,554.65 C475.25,555.78 467.81,554.14 446.00,548.50 ZM 505.50 549.20 C495.02,544.05 457.44,526.20 395.00,496.73 L 366.50 483.28 L 366.25 363.14 C366.03,261.56 366.21,243.00 367.37,243.00 C368.13,243.00 378.37,247.55 390.13,253.12 C401.88,258.69 415.31,265.05 419.97,267.26 C435.02,274.39 491.12,301.00 504.25,307.24 L 517.00 313.30 L 517.00 351.65 C517.00,376.55 517.35,390.00 518.00,390.00 C518.55,390.00 519.00,389.61 519.00,389.14 C519.00,388.66 522.60,382.83 527.00,376.18 L 535.00 364.09 L 535.00 338.71 L 535.00 313.33 L 540.75 310.77 C543.91,309.36 559.78,301.81 576.00,293.99 C592.22,286.17 612.47,276.50 621.00,272.48 C629.53,268.47 647.41,260.01 660.75,253.67 L 685.00 242.16 L 685.00 362.46 C685.00,457.49 684.74,482.97 683.75,483.77 C683.06,484.32 666.08,492.52 646.00,501.99 C625.92,511.46 607.92,520.03 606.00,521.03 C604.08,522.03 593.72,526.99 583.00,532.05 C572.28,537.12 557.20,544.30 549.50,548.02 C538.72,553.22 535.42,554.43 535.16,553.28 C534.13,548.83 538.03,525.40 542.03,511.90 C543.83,505.87 544.33,505.15 548.00,503.50 C550.20,502.51 552.00,501.37 552.00,500.97 C552.00,500.58 553.30,499.99 554.88,499.67 C556.46,499.36 558.38,498.49 559.13,497.74 C559.88,497.00 561.17,496.13 562.00,495.82 C568.03,493.53 589.95,474.10 598.19,463.75 C601.55,459.51 601.65,459.56 593.50,461.50 C585.40,463.44 571.00,464.57 571.00,463.27 C571.00,462.72 573.14,461.47 575.75,460.49 C583.14,457.71 599.80,449.20 607.21,444.42 C614.71,439.58 617.80,435.80 624.06,423.76 C628.15,415.91 638.12,392.79 637.63,392.30 C637.51,392.17 634.70,393.16 631.39,394.50 C621.62,398.44 606.00,402.04 606.00,400.34 C606.00,399.88 608.47,398.21 611.48,396.64 C618.33,393.06 632.93,383.32 638.81,378.40 C641.25,376.36 644.08,372.81 645.10,370.51 C650.58,358.12 661.21,300.00 658.00,300.00 C652.57,300.00 616.70,317.28 601.50,327.22 C585.11,337.93 580.88,343.73 574.49,364.25 C572.99,369.06 571.37,373.00 570.88,373.00 C570.40,373.00 570.00,368.73 570.00,363.50 C570.00,358.27 569.65,354.00 569.22,354.00 C568.79,354.00 565.71,356.81 562.37,360.25 C539.65,383.61 524.45,411.34 518.38,440.50 C515.61,453.79 515.94,495.04 518.82,494.99 C519.19,494.98 521.74,489.24 524.48,482.24 C527.22,475.23 531.16,465.98 533.23,461.68 C535.30,457.37 537.00,453.24 537.00,452.50 C537.00,451.76 538.04,449.88 539.32,448.33 C540.60,446.77 543.37,442.35 545.49,438.50 C550.82,428.79 565.91,406.20 573.86,396.00 C585.70,380.81 607.41,357.08 608.48,358.15 C608.70,358.36 605.64,362.65 601.69,367.67 C585.36,388.41 568.74,414.83 555.41,441.24 C550.21,451.55 545.99,460.10 546.03,460.24 C546.07,460.38 544.69,463.61 542.97,467.41 C534.74,485.55 524.11,519.33 519.51,541.92 C518.12,548.76 516.88,554.41 516.74,554.48 C516.61,554.56 511.55,552.18 505.50,549.20 ZM 581.00 554.08 C581.00,553.67 595.06,546.65 612.25,538.49 C629.44,530.32 655.20,518.05 669.50,511.22 C683.80,504.39 697.41,497.92 699.75,496.85 L 704.00 494.91 L 704.00 389.95 L 704.00 285.00 L 714.48 285.00 L 724.95 285.00 L 725.23 361.75 C725.38,403.96 725.37,456.50 725.22,478.50 L 724.94 518.50 L 666.22 533.28 C633.92,541.41 604.12,548.97 600.00,550.08 C586.75,553.63 581.00,554.84 581.00,554.08 Z" fill="rgb(252,253,252)"/>
</g>
</svg>